SplineFontDB: 3.2
FontName: CHRISTMAS
FullName: CHRISTMAS Regular
FamilyName: CHRISTMAS
Weight: Book
Copyright: 
Version: 1.00;December 20, 2022;FontCreator 11.5.0.2430 64-bit
ItalicAngle: 0
UnderlinePosition: -204
UnderlineWidth: 102
Ascent: 1638
Descent: 410
InvalidEm: 0
sfntRevision: 0x00010000
woffMajor: 1
woffMinor: 0
LayerCount: 2
Layer: 0 1 "Back" 1
Layer: 1 1 "Fore" 0
XUID: [1021 554 2078841343 1918]
StyleMap: 0x0040
FSType: 4
OS2Version: 3
OS2_WeightWidthSlopeOnly: 0
OS2_UseTypoMetrics: 0
CreationTime: 1671361140
ModificationTime: 1733185725
PfmFamily: 17
TTFWeight: 400
TTFWidth: 5
LineGap: 0
VLineGap: 0
Panose: 2 0 5 0 0 0 0 0 0 0
OS2TypoAscent: 1638
OS2TypoAOffset: 0
OS2TypoDescent: -410
OS2TypoDOffset: 0
OS2TypoLinegap: 0
OS2WinAscent: 1991
OS2WinAOffset: 0
OS2WinDescent: 828
OS2WinDOffset: 0
HheadAscent: 1991
HheadAOffset: 0
HheadDescent: -828
HheadDOffset: 0
OS2SubXSize: 1434
OS2SubYSize: 1331
OS2SubXOff: 0
OS2SubYOff: 287
OS2SupXSize: 1434
OS2SupYSize: 1331
OS2SupXOff: 205
OS2SupYOff: 717
OS2StrikeYSize: 102
OS2StrikeYPos: 512
OS2CapHeight: 1393
OS2XHeight: 922
OS2Vendor: 'HL  '
OS2CodePages: 00000001.00000000
OS2UnicodeRanges: 00000003.10000000.00000000.00000000
Lookup: 258 0 0 "'kern' Horizontal Kerning in Latin lookup 0" { "'kern' Horizontal Kerning in Latin lookup 0 subtable"  } ['kern' ('latn' <'dflt' > ) ]
MarkAttachClasses: 1
DEI: 91125
TtTable: prep
PUSHW_1
 511
SCANCTRL
PUSHB_1
 1
SCANTYPE
SVTCA[y-axis]
MPPEM
PUSHB_1
 8
LT
IF
PUSHB_2
 1
 1
INSTCTRL
EIF
PUSHB_2
 70
 6
CALL
IF
POP
PUSHB_1
 16
EIF
MPPEM
PUSHB_1
 20
GT
IF
POP
PUSHB_1
 128
EIF
SCVTCI
PUSHB_1
 6
CALL
NOT
IF
SVTCA[y-axis]
PUSHB_1
 3
DUP
RCVT
PUSHB_1
 3
CALL
WCVTP
PUSHB_1
 5
DUP
RCVT
PUSHB_3
 3
 112
 2
CALL
PUSHB_1
 3
CALL
WCVTP
PUSHB_1
 4
DUP
RCVT
PUSHB_3
 5
 80
 2
CALL
PUSHB_1
 3
CALL
WCVTP
PUSHB_1
 6
DUP
RCVT
PUSHB_3
 3
 79
 2
CALL
PUSHB_1
 3
CALL
WCVTP
PUSHB_1
 7
DUP
RCVT
PUSHB_3
 6
 47
 2
CALL
PUSHB_1
 3
CALL
WCVTP
PUSHB_1
 8
DUP
RCVT
PUSHB_3
 7
 41
 2
CALL
PUSHB_1
 3
CALL

StartChar: exclam
Encoding: 33 33 0
Width: 757
GlyphClass: 2
Flags: W
LayerCount: 2
Fore
SplineSet
20 1108 m 0,0,1
 20 1166 20 1166 45.5 1212.5 c 128,-1,2
 71 1259 71 1259 111 1286.5 c 128,-1,3
 151 1314 151 1314 197 1328.5 c 128,-1,4
 243 1343 243 1343 289 1343 c 0,5,6
 305 1343 305 1343 336 1340 c 128,-1,7
 367 1337 367 1337 385 1337 c 0,8,9
 452 1337 452 1337 538.5 1354.5 c 128,-1,10
 625 1372 625 1372 678 1390 c 2,11,-1
 731 1407 l 1,12,-1
 733 1407 l 2,13,14
 742 1407 742 1407 750 1401 c 128,-1,15
 758 1395 758 1395 758 1386 c 0,16,17
 758 1373 758 1373 741 1362 c 0,18,19
 700 1333 700 1333 672.5 1286 c 128,-1,20
 645 1239 645 1239 645 1214 c 2,21,-1
 647 598 l 2,22,23
 651 513 651 513 682 496 c 0,24,25
 729 465 729 465 729 434 c 0,26,27
 729 420 729 420 717 420 c 2,28,-1
 711 420 l 1,29,30
 648 438 648 438 545 438 c 0,31,32
 495 438 495 438 447 434.5 c 128,-1,33
 399 431 399 431 353 426 c 128,-1,34
 307 421 307 421 299 420 c 0,35,36
 283 420 283 420 283 436 c 0,37,38
 283 465 283 465 330 496 c 0,39,40
 365 519 365 519 365 639 c 2,41,-1
 360 928 l 1,42,43
 416 981 416 981 416 1049 c 0,44,45
 416 1116 416 1116 360 1169 c 1,46,47
 357 1211 357 1211 332.5 1251.5 c 128,-1,48
 308 1292 308 1292 274 1292 c 0,49,50
 227 1292 227 1292 203.5 1262.5 c 128,-1,51
 180 1233 180 1233 180 1192 c 0,52,53
 180 1155 180 1155 197 1128.5 c 128,-1,54
 214 1102 214 1102 242 1102 c 0,55,56
 280 1102 280 1102 305 1123.5 c 128,-1,57
 330 1145 330 1145 334 1165 c 1,58,59
 391 1122 391 1122 391 1057 c 0,60,61
 391 988 391 988 335.5 947.5 c 128,-1,62
 280 907 280 907 213 907 c 0,63,64
 134 907 134 907 77 959 c 128,-1,65
 20 1011 20 1011 20 1108 c 0,0,1
322 178 m 0,66,67
 322 258 322 258 378 315.5 c 128,-1,68
 434 373 434 373 512 373 c 0,69,70
 594 373 594 373 652.5 315.5 c 128,-1,71
 711 258 711 258 711 176 c 0,72,73
 711 98 711 98 653.5 42 c 128,-1,74
 596 -14 596 -14 514 -14 c 128,-1,75
 432 -14 432 -14 377 41 c 128,-1,76
 322 96 322 96 322 178 c 0,66,67
EndSplineSet
EndChar

StartChar: quotedbl
Encoding: 34 34 1
Width: 815
GlyphClass: 2
Flags: W
LayerCount: 2
Fore
SplineSet
20 1192 m 0,0,1
 20 1269 20 1269 78.5 1327.5 c 128,-1,2
 137 1386 137 1386 211 1386 c 0,3,4
 289 1386 289 1386 348.5 1329 c 128,-1,5
 408 1272 408 1272 408 1178 c 0,6,7
 408 1091 408 1091 322 975.5 c 128,-1,8
 236 860 236 860 137 827 c 0,9,10
 131 825 131 825 123 825 c 0,11,12
 111 825 111 825 111 836 c 0,13,14
 111 848 111 848 128 880.5 c 128,-1,15
 145 913 145 913 147 920 c 0,16,17
 156 941 156 941 156 956 c 0,18,19
 156 974 156 974 148.5 986 c 128,-1,20
 141 998 141 998 118 1018 c 128,-1,21
 95 1038 95 1038 84 1049 c 0,22,23
 20 1113 20 1113 20 1192 c 0,0,1
428 1192 m 0,24,25
 428 1270 428 1270 486 1328 c 128,-1,26
 544 1386 544 1386 618 1386 c 0,27,28
 696 1386 696 1386 755.5 1329 c 128,-1,29
 815 1272 815 1272 815 1178 c 0,30,31
 815 1092 815 1092 729 976 c 128,-1,32
 643 860 643 860 545 827 c 0,33,34
 539 825 539 825 530 825 c 0,35,36
 518 825 518 825 518 836 c 0,37,38
 518 848 518 848 534.5 881 c 128,-1,39
 551 914 551 914 553 920 c 0,40,41
 561 939 561 939 561 958 c 0,42,43
 561 975 561 975 554 986 c 128,-1,44
 547 997 547 997 523 1018 c 128,-1,45
 499 1039 499 1039 489 1049 c 0,46,47
 428 1110 428 1110 428 1192 c 0,24,25
EndSplineSet
EndChar

StartChar: numbersign
Encoding: 35 35 2
Width: 768
GlyphClass: 2
Flags: W
LayerCount: 2
Fore
SplineSet
20 514 m 0,0,1
 24 535 24 535 41 535 c 2,2,-1
 152 537 l 2,3,4
 197 537 197 537 207 575 c 0,5,6
 214 600 214 600 237 667 c 128,-1,7
 260 734 260 734 268 772 c 1,8,-1
 223 776 l 1,9,-1
 141 774 l 2,10,11
 113 774 113 774 113 795 c 0,12,13
 115 809 115 809 139 813 c 1,14,-1
 258 813 l 2,15,16
 269 813 269 813 278.5 819.5 c 128,-1,17
 288 826 288 826 293.5 833.5 c 128,-1,18
 299 841 299 841 305.5 858 c 128,-1,19
 312 875 312 875 314.5 883 c 128,-1,20
 317 891 317 891 322 911 c 0,21,22
 330 954 330 954 373 954 c 2,23,-1
 408 956 l 2,24,25
 425 956 425 956 440 950 c 1,26,27
 431 924 431 924 425.5 909 c 128,-1,28
 420 894 420 894 418 890 c 128,-1,29
 416 886 416 886 412.5 874 c 128,-1,30
 409 862 409 862 403 834 c 0,31,32
 403 815 403 815 430 815 c 2,33,-1
 487 813 l 2,34,35
 528 813 528 813 542.5 829.5 c 128,-1,36
 557 846 557 846 580 911 c 0,37,38
 581 913 581 913 584.5 925.5 c 128,-1,39
 588 938 588 938 592.5 944 c 128,-1,40
 597 950 597 950 606 952 c 2,41,-1
 629 954 l 1,42,43
 692 954 692 954 692 932 c 1,44,45
 688 918 688 918 677.5 890 c 128,-1,46
 667 862 667 862 664 838 c 0,47,48
 664 830 664 830 669 825.5 c 128,-1,49
 674 821 674 821 683.5 820 c 128,-1,50
 693 819 693 819 703 818.5 c 128,-1,51
 713 818 713 818 728.5 818 c 128,-1,52
 744 818 744 818 754 817 c 0,53,54
 768 812 768 812 768 799 c 0,55,56
 768 787 768 787 754 782 c 0,57,58
 708 778 708 778 684 778 c 2,59,-1
 676 778 l 2,60,61
 639 778 639 778 629 741 c 0,62,63
 622 715 622 715 598.5 650 c 128,-1,64
 575 585 575 585 567 547 c 1,65,66
 585 543 585 543 618 543 c 2,67,-1
 700 541 l 2,68,69
 723 541 723 541 723 520 c 0,70,71
 723 504 723 504 702 504 c 0,72,73
 688 502 688 502 655 502 c 0,74,75
 637 501 637 501 613.5 501 c 128,-1,76
 590 501 590 501 583.5 501.5 c 128,-1,77
 577 502 577 502 565 499 c 128,-1,78
 553 496 553 496 552 494 c 128,-1,79
 551 492 551 492 544.5 483 c 128,-1,80
 538 474 538 474 537 466 c 128,-1,81
 536 458 536 458 529.5 438.5 c 128,-1,82
 523 419 523 419 516 401 c 0,83,84
 502 366 502 366 494.5 360 c 128,-1,85
 487 354 487 354 451 354 c 2,86,-1
 424 354 l 2,87,88
 405 354 405 354 395 358 c 1,89,90
 395 380 395 380 411.5 422.5 c 128,-1,91
 428 465 428 465 428 489 c 2,92,-1
 428 494 l 1,93,94
 412 498 412 498 377 498 c 2,95,-1
 311 498 l 2,96,97
 288 498 288 498 281 469 c 2,98,-1
 250 381 l 2,99,100
 241 346 241 346 211 346 c 2,101,-1
 158 346 l 2,102,103
 135 346 135 346 135 362 c 0,104,105
 139 386 139 386 153.5 424 c 128,-1,106
 168 462 168 462 172 489 c 1,107,108
 160 496 160 496 141 496 c 2,109,-1
 43 496 l 1,110,111
 20 501 20 501 20 514 c 0,0,1
311 553 m 2,112,113
 311 544 311 544 322 541 c 2,114,-1
 369 539 l 2,115,116
 392 539 392 539 442 543 c 0,117,118
 453 545 453 545 461 565 c 2,119,-1
 532 776 l 1,120,-1
 412 776 l 2,121,122
 382 776 382 776 375 754 c 2,123,-1
 313 565 l 1,124,-1
 311 553 l 2,112,113
EndSplineSet
EndChar

StartChar: quotesingle
Encoding: 39 39 3
Width: 407
GlyphClass: 2
Flags: W
LayerCount: 2
Fore
SplineSet
20 1192 m 0,0,1
 20 1269 20 1269 78.5 1327.5 c 128,-1,2
 137 1386 137 1386 211 1386 c 0,3,4
 289 1386 289 1386 348.5 1329 c 128,-1,5
 408 1272 408 1272 408 1178 c 0,6,7
 408 1091 408 1091 322 975.5 c 128,-1,8
 236 860 236 860 137 827 c 0,9,10
 131 825 131 825 123 825 c 0,11,12
 111 825 111 825 111 836 c 0,13,14
 111 848 111 848 128 880.5 c 128,-1,15
 145 913 145 913 147 920 c 0,16,17
 156 941 156 941 156 956 c 0,18,19
 156 974 156 974 148.5 986 c 128,-1,20
 141 998 141 998 118 1018 c 128,-1,21
 95 1038 95 1038 84 1049 c 0,22,23
 20 1113 20 1113 20 1192 c 0,0,1
EndSplineSet
EndChar

StartChar: parenleft
Encoding: 40 40 4
Width: 430
GlyphClass: 2
Flags: W
LayerCount: 2
Fore
SplineSet
20 702 m 0,0,1
 20 947 20 947 115 1194 c 1,2,3
 211 1414 211 1414 383 1573 c 0,4,5
 392 1585 392 1585 406 1585 c 0,6,7
 423 1582 423 1582 426 1573 c 0,8,9
 430 1561 430 1561 430 1546 c 0,10,11
 428 1540 428 1540 424 1524 c 0,12,13
 413 1488 413 1488 401 1460 c 0,14,15
 330 1295 330 1295 281 1110 c 0,16,17
 229 924 229 924 229 741 c 0,18,19
 229 529 229 529 279 299 c 0,20,21
 325 69 325 69 399 -131 c 0,22,23
 404 -139 404 -139 408 -150 c 0,24,25
 410 -156 410 -156 410 -168 c 0,26,27
 410 -181 410 -181 401 -190 c 0,28,29
 391 -203 391 -203 381 -203 c 0,30,31
 358 -203 358 -203 340 -182 c 0,32,33
 325 -169 325 -169 305 -145 c 0,34,35
 152 52 152 52 86 285 c 1,36,37
 20 501 20 501 20 702 c 0,0,1
EndSplineSet
EndChar

StartChar: parenright
Encoding: 41 41 5
Width: 430
GlyphClass: 2
Flags: W
LayerCount: 2
Fore
SplineSet
20 1546 m 1,0,1
 20 1566 20 1566 24.5 1574 c 128,-1,2
 29 1582 29 1582 45 1585 c 0,3,4
 56 1585 56 1585 68 1573 c 0,5,6
 264 1377 264 1377 336 1194 c 0,7,8
 430 949 430 949 430 702 c 0,9,10
 430 498 430 498 365 285 c 0,11,12
 281 18 281 18 145 -145 c 0,13,14
 100 -203 100 -203 70 -203 c 0,15,16
 60 -203 60 -203 50.5 -191.5 c 128,-1,17
 41 -180 41 -180 41 -168 c 0,18,19
 41 -148 41 -148 51 -131 c 0,20,21
 128 80 128 80 174.5 308 c 128,-1,22
 221 536 221 536 221 741 c 0,23,24
 221 912 221 912 173.5 1100 c 128,-1,25
 126 1288 126 1288 49 1460 c 0,26,27
 40 1479 40 1479 20 1546 c 1,0,1
EndSplineSet
EndChar

StartChar: asterisk
Encoding: 42 42 6
Width: 460
GlyphClass: 2
Flags: W
LayerCount: 2
Fore
SplineSet
20 1188 m 0,0,1
 20 1215 20 1215 39 1236 c 128,-1,2
 58 1257 58 1257 84 1257 c 0,3,4
 93 1257 93 1257 104.5 1253.5 c 128,-1,5
 116 1250 116 1250 124.5 1246.5 c 128,-1,6
 133 1243 133 1243 150 1234.5 c 128,-1,7
 167 1226 167 1226 174 1223 c 1,8,9
 174 1252 174 1252 174.5 1268 c 128,-1,10
 175 1284 175 1284 179 1305 c 128,-1,11
 183 1326 183 1326 189.5 1336.5 c 128,-1,12
 196 1347 196 1347 209.5 1354.5 c 128,-1,13
 223 1362 223 1362 242 1362 c 0,14,15
 273 1362 273 1362 288.5 1345.5 c 128,-1,16
 304 1329 304 1329 307 1290 c 0,17,18
 307 1269 307 1269 303 1219 c 1,19,20
 314 1220 314 1220 324 1224.5 c 128,-1,21
 334 1229 334 1229 345 1235.5 c 128,-1,22
 356 1242 356 1242 362 1245 c 0,23,24
 377 1251 377 1251 395 1251 c 0,25,26
 422 1251 422 1251 441.5 1229.5 c 128,-1,27
 461 1208 461 1208 461 1184 c 0,28,29
 461 1149 461 1149 422 1126 c 0,30,31
 407 1116 407 1116 374.5 1106 c 128,-1,32
 342 1096 342 1096 328 1090 c 1,33,34
 331 1087 331 1087 340.5 1076.5 c 128,-1,35
 350 1066 350 1066 353.5 1062 c 128,-1,36
 357 1058 357 1058 365 1048.5 c 128,-1,37
 373 1039 373 1039 376.5 1034 c 128,-1,38
 380 1029 380 1029 386.5 1020.5 c 128,-1,39
 393 1012 393 1012 396 1006 c 128,-1,40
 399 1000 399 1000 402 992 c 128,-1,41
 405 984 405 984 406.5 977 c 128,-1,42
 408 970 408 970 408 963 c 0,43,44
 408 939 408 939 386 918 c 128,-1,45
 364 897 364 897 340 897 c 0,46,47
 313 897 313 897 290 924 c 128,-1,48
 267 951 267 951 258 993 c 0,49,50
 256 998 256 998 253.5 1008.5 c 128,-1,51
 251 1019 251 1019 248 1027 c 128,-1,52
 245 1035 245 1035 240 1040 c 1,53,54
 234 1035 234 1035 230.5 1027.5 c 128,-1,55
 227 1020 227 1020 224 1008.5 c 128,-1,56
 221 997 221 997 219 993 c 0,57,58
 208 951 208 951 185.5 924 c 128,-1,59
 163 897 163 897 137 897 c 0,60,61
 114 897 114 897 91 918.5 c 128,-1,62
 68 940 68 940 68 963 c 0,63,64
 68 1004 68 1004 121 1061 c 0,65,66
 123 1063 123 1063 129 1068 c 128,-1,67
 135 1073 135 1073 138.5 1076.5 c 128,-1,68
 142 1080 142 1080 146 1086.5 c 128,-1,69
 150 1093 150 1093 152 1100 c 1,70,71
 84 1118 84 1118 63 1130 c 0,72,73
 20 1154 20 1154 20 1188 c 0,0,1
EndSplineSet
EndChar

StartChar: plus
Encoding: 43 43 7
Width: 671
GlyphClass: 2
Flags: W
LayerCount: 2
Fore
SplineSet
20 549 m 2,0,-1
 20 578 l 2,1,2
 20 610 20 610 26.5 616.5 c 128,-1,3
 33 623 33 623 66 625 c 2,4,-1
 262 623 l 2,5,6
 268 623 268 623 271.5 623.5 c 128,-1,7
 275 624 275 624 278.5 624 c 128,-1,8
 282 624 282 624 284 626 c 128,-1,9
 286 628 286 628 287.5 629 c 128,-1,10
 289 630 289 630 290 634 c 128,-1,11
 291 638 291 638 291.5 641 c 128,-1,12
 292 644 292 644 292 651 c 128,-1,13
 292 658 292 658 292 663.5 c 128,-1,14
 292 669 292 669 292.5 679 c 128,-1,15
 293 689 293 689 293 698 c 0,16,17
 293 797 293 797 291 846 c 0,18,19
 291 883 291 883 324 883 c 2,20,-1
 346 883 l 2,21,22
 384 883 384 883 392.5 874 c 128,-1,23
 401 865 401 865 401 827 c 2,24,-1
 401 674 l 2,25,26
 401 634 401 634 408.5 627 c 128,-1,27
 416 620 416 620 457 618 c 2,28,-1
 621 621 l 2,29,30
 655 619 655 619 663.5 610.5 c 128,-1,31
 672 602 672 602 672 569 c 0,32,33
 672 528 672 528 661.5 518 c 128,-1,34
 651 508 651 508 608 508 c 2,35,-1
 444 508 l 2,36,37
 413 508 413 508 407 502.5 c 128,-1,38
 401 497 401 497 401 465 c 2,39,-1
 401 408 l 2,40,41
 401 375 401 375 403.5 336.5 c 128,-1,42
 406 298 406 298 406 260 c 0,43,44
 406 249 406 249 402 243 c 128,-1,45
 398 237 398 237 393.5 236 c 128,-1,46
 389 235 389 235 376 233.5 c 128,-1,47
 363 232 363 232 356 231 c 2,48,-1
 336 231 l 2,49,50
 305 231 305 231 298 241.5 c 128,-1,51
 291 252 291 252 291 295 c 2,52,-1
 291 477 l 2,53,54
 291 510 291 510 250 510 c 0,55,56
 195 508 195 508 80 508 c 0,57,58
 40 508 40 508 30 514.5 c 128,-1,59
 20 521 20 521 20 549 c 2,0,-1
EndSplineSet
EndChar

StartChar: comma
Encoding: 44 44 8
Width: 409
GlyphClass: 2
Flags: W
LayerCount: 2
Fore
SplineSet
20 188 m 0,0,1
 20 266 20 266 79 324.5 c 128,-1,2
 138 383 138 383 211 383 c 0,3,4
 291 383 291 383 350.5 325.5 c 128,-1,5
 410 268 410 268 410 174 c 0,6,7
 410 88 410 88 323.5 -27.5 c 128,-1,8
 237 -143 237 -143 139 -176 c 0,9,10
 133 -178 133 -178 123 -178 c 0,11,12
 111 -178 111 -178 111 -168 c 0,13,14
 111 -156 111 -156 128 -123.5 c 128,-1,15
 145 -91 145 -91 147 -84 c 0,16,17
 154 -60 154 -60 154 -45 c 0,18,19
 154 -28 154 -28 147 -16.5 c 128,-1,20
 140 -5 140 -5 117.5 14 c 128,-1,21
 95 33 95 33 84 45 c 0,22,23
 20 106 20 106 20 188 c 0,0,1
EndSplineSet
EndChar

StartChar: period
Encoding: 46 46 9
Width: 409
GlyphClass: 2
Flags: W
LayerCount: 2
Fore
SplineSet
20 178 m 0,0,1
 20 258 20 258 76.5 315.5 c 128,-1,2
 133 373 133 373 211 373 c 0,3,4
 293 373 293 373 351.5 315.5 c 128,-1,5
 410 258 410 258 410 176 c 0,6,7
 410 98 410 98 352.5 42 c 128,-1,8
 295 -14 295 -14 213 -14 c 128,-1,9
 131 -14 131 -14 75.5 41 c 128,-1,10
 20 96 20 96 20 178 c 0,0,1
EndSplineSet
EndChar

StartChar: slash
Encoding: 47 47 10
Width: 894
GlyphClass: 2
Flags: W
LayerCount: 2
Fore
SplineSet
20 -72 m 0,0,1
 25 -47 25 -47 43 -20 c 2,2,-1
 786 1454 l 2,3,4
 803 1493 803 1493 834 1493 c 0,5,6
 895 1487 895 1487 895 1464 c 0,7,8
 895 1451 895 1451 883 1427 c 0,9,10
 285 232 285 232 150 -41 c 0,11,12
 136 -69 136 -69 115 -77.5 c 128,-1,13
 94 -86 94 -86 57 -86 c 128,-1,14
 20 -86 20 -86 20 -72 c 0,0,1
EndSplineSet
EndChar

StartChar: zero
Encoding: 48 48 11
Width: 1228
GlyphClass: 2
Flags: W
LayerCount: 2
Fore
SplineSet
20 694 m 0,0,1
 20 807 20 807 47 914.5 c 128,-1,2
 74 1022 74 1022 127 1112.5 c 128,-1,3
 180 1203 180 1203 252.5 1271.5 c 128,-1,4
 325 1340 325 1340 421 1378.5 c 128,-1,5
 517 1417 517 1417 625 1417 c 0,6,7
 727 1417 727 1417 807 1343.5 c 128,-1,8
 887 1270 887 1270 887 1153 c 0,9,10
 887 1065 887 1065 818.5 1008.5 c 128,-1,11
 750 952 750 952 672 952 c 0,12,13
 576 952 576 952 522.5 1003 c 128,-1,14
 469 1054 469 1054 469 1122 c 0,15,16
 469 1195 469 1195 524 1235 c 1,17,18
 528 1216 528 1216 567 1189.5 c 128,-1,19
 606 1163 606 1163 647 1163 c 0,20,21
 689 1163 689 1163 714 1191 c 128,-1,22
 739 1219 739 1219 739 1257 c 0,23,24
 739 1296 739 1296 712.5 1324 c 128,-1,25
 686 1352 686 1352 635 1352 c 0,26,27
 575 1352 575 1352 525.5 1307.5 c 128,-1,28
 476 1263 476 1263 445.5 1193.5 c 128,-1,29
 415 1124 415 1124 394 1034 c 128,-1,30
 373 944 373 944 364.5 859.5 c 128,-1,31
 356 775 356 775 356 694 c 0,32,33
 356 587 356 587 373.5 474.5 c 128,-1,34
 391 362 391 362 422.5 261.5 c 128,-1,35
 454 161 454 161 507.5 97 c 128,-1,36
 561 33 561 33 625 33 c 0,37,38
 701 33 701 33 758 96.5 c 128,-1,39
 815 160 815 160 845.5 262.5 c 128,-1,40
 876 365 876 365 890.5 474 c 128,-1,41
 905 583 905 583 905 694 c 0,42,43
 905 873 905 873 889 1063 c 1,44,45
 909 1104 909 1104 909 1161 c 0,46,47
 909 1230 909 1230 874 1295.5 c 128,-1,48
 839 1361 839 1361 772 1399 c 1,49,50
 912 1361 912 1361 1017 1256.5 c 128,-1,51
 1122 1152 1122 1152 1175.5 1006.5 c 128,-1,52
 1229 861 1229 861 1229 694 c 0,53,54
 1229 500 1229 500 1154.5 335.5 c 128,-1,55
 1080 171 1080 171 940.5 71 c 128,-1,56
 801 -29 801 -29 625 -29 c 0,57,58
 492 -29 492 -29 377 30 c 128,-1,59
 262 89 262 89 185 188 c 128,-1,60
 108 287 108 287 64 418.5 c 128,-1,61
 20 550 20 550 20 694 c 0,0,1
EndSplineSet
EndChar

StartChar: colon
Encoding: 58 58 12
Width: 409
GlyphClass: 2
Flags: W
LayerCount: 2
Fore
SplineSet
20 180 m 0,0,1
 20 260 20 260 76.5 317.5 c 128,-1,2
 133 375 133 375 211 375 c 0,3,4
 293 375 293 375 351.5 317.5 c 128,-1,5
 410 260 410 260 410 178 c 0,6,7
 410 100 410 100 352.5 44 c 128,-1,8
 295 -12 295 -12 213 -12 c 128,-1,9
 131 -12 131 -12 75.5 43 c 128,-1,10
 20 98 20 98 20 180 c 0,0,1
20 741 m 0,11,12
 20 821 20 821 76.5 878.5 c 128,-1,13
 133 936 133 936 211 936 c 0,14,15
 293 936 293 936 351.5 878.5 c 128,-1,16
 410 821 410 821 410 739 c 0,17,18
 410 661 410 661 352.5 605 c 128,-1,19
 295 549 295 549 213 549 c 128,-1,20
 131 549 131 549 75.5 604 c 128,-1,21
 20 659 20 659 20 741 c 0,11,12
EndSplineSet
EndChar

StartChar: semicolon
Encoding: 59 59 13
Width: 428
GlyphClass: 2
Flags: W
LayerCount: 2
Fore
SplineSet
20 188 m 0,0,1
 20 266 20 266 79 324.5 c 128,-1,2
 138 383 138 383 211 383 c 0,3,4
 291 383 291 383 350.5 325.5 c 128,-1,5
 410 268 410 268 410 174 c 0,6,7
 410 88 410 88 323.5 -27.5 c 128,-1,8
 237 -143 237 -143 139 -176 c 0,9,10
 133 -178 133 -178 123 -178 c 0,11,12
 111 -178 111 -178 111 -168 c 0,13,14
 111 -156 111 -156 128 -123.5 c 128,-1,15
 145 -91 145 -91 147 -84 c 0,16,17
 154 -60 154 -60 154 -45 c 0,18,19
 154 -28 154 -28 147 -16.5 c 128,-1,20
 140 -5 140 -5 117.5 14 c 128,-1,21
 95 33 95 33 84 45 c 0,22,23
 20 106 20 106 20 188 c 0,0,1
39 741 m 0,24,25
 39 821 39 821 95 878.5 c 128,-1,26
 151 936 151 936 229 936 c 0,27,28
 311 936 311 936 369.5 878.5 c 128,-1,29
 428 821 428 821 428 739 c 0,30,31
 428 661 428 661 370.5 605 c 128,-1,32
 313 549 313 549 231 549 c 128,-1,33
 149 549 149 549 94 604 c 128,-1,34
 39 659 39 659 39 741 c 0,24,25
EndSplineSet
EndChar

StartChar: less
Encoding: 60 60 14
Width: 423
GlyphClass: 2
Flags: W
LayerCount: 2
Fore
SplineSet
20 528 m 0,0,1
 20 542 20 542 43 565 c 0,2,3
 46 568 46 568 340 856 c 0,4,5
 342 858 342 858 358 866 c 1,6,-1
 424 809 l 1,7,8
 415 794 415 794 404.5 782.5 c 128,-1,9
 394 771 394 771 374.5 754.5 c 128,-1,10
 355 738 355 738 352 735 c 2,11,-1
 172 559 l 2,12,13
 150 540 150 540 150 530 c 128,-1,14
 150 520 150 520 170 500 c 2,15,-1
 360 301 l 2,16,17
 387 274 387 274 387 264 c 0,18,19
 387 257 387 257 382.5 249.5 c 128,-1,20
 378 242 378 242 373 236.5 c 128,-1,21
 368 231 368 231 354.5 218 c 128,-1,22
 341 205 341 205 332 195 c 1,23,24
 316 195 316 195 303 213 c 2,25,-1
 45 487 l 2,26,27
 20 515 20 515 20 528 c 0,0,1
EndSplineSet
EndChar

StartChar: equal
Encoding: 61 61 15
Width: 548
GlyphClass: 2
Flags: W
LayerCount: 2
Fore
SplineSet
20 524 m 0,0,1
 20 556 20 556 28.5 563.5 c 128,-1,2
 37 571 37 571 74 571 c 0,3,4
 230 569 230 569 500 567 c 0,5,6
 530 567 530 567 539.5 562 c 128,-1,7
 549 557 549 557 549 539 c 0,8,9
 546 504 546 504 539 493.5 c 128,-1,10
 532 483 532 483 504 483 c 2,11,-1
 72 481 l 2,12,13
 35 481 35 481 27.5 487 c 128,-1,14
 20 493 20 493 20 524 c 0,0,1
20 702 m 0,15,16
 20 734 20 734 28.5 742 c 128,-1,17
 37 750 37 750 74 750 c 0,18,19
 372 746 372 746 500 745 c 0,20,21
 530 745 530 745 539.5 740 c 128,-1,22
 549 735 549 735 549 717 c 0,23,24
 546 682 546 682 539 672 c 128,-1,25
 532 662 532 662 504 662 c 2,26,-1
 72 659 l 2,27,28
 35 659 35 659 27.5 665 c 128,-1,29
 20 671 20 671 20 702 c 0,15,16
EndSplineSet
EndChar

StartChar: greater
Encoding: 62 62 16
Width: 423
GlyphClass: 2
Flags: W
LayerCount: 2
Fore
SplineSet
20 809 m 1,0,-1
 86 866 l 1,1,2
 102 858 102 858 104 856 c 0,3,4
 398 568 398 568 401 565 c 0,5,6
 424 542 424 542 424 528 c 0,7,8
 424 515 424 515 399 487 c 2,9,-1
 141 213 l 2,10,11
 128 195 128 195 113 195 c 1,12,13
 105 204 105 204 94.5 214.5 c 128,-1,14
 84 225 84 225 78.5 230 c 128,-1,15
 73 235 73 235 68 241.5 c 128,-1,16
 63 248 63 248 61 253 c 128,-1,17
 59 258 59 258 59 264 c 0,18,19
 59 273 59 273 84 301 c 2,20,-1
 274 500 l 2,21,22
 295 521 295 521 295 530 c 128,-1,23
 295 539 295 539 272 559 c 2,24,-1
 92 735 l 2,25,26
 89 738 89 738 69.5 754.5 c 128,-1,27
 50 771 50 771 39.5 782.5 c 128,-1,28
 29 794 29 794 20 809 c 1,0,-1
EndSplineSet
EndChar

StartChar: question
Encoding: 63 63 17
Width: 950
GlyphClass: 2
Flags: W
LayerCount: 2
Fore
SplineSet
20 1059 m 0,0,1
 20 1132 20 1132 66 1214 c 0,2,3
 108 1294 108 1294 205 1354 c 0,4,5
 297 1411 297 1411 461 1411 c 0,6,7
 575 1411 575 1411 688 1368 c 0,8,9
 800 1325 800 1325 877 1233 c 1,10,11
 950 1139 950 1139 950 985 c 0,12,13
 950 760 950 760 795 623 c 128,-1,14
 640 486 640 486 358 451 c 1,15,-1
 358 391 l 1,16,17
 282 412 282 412 199 412 c 128,-1,18
 116 412 116 412 31 391 c 1,19,-1
 31 463 l 2,20,21
 31 576 31 576 98 649 c 0,22,23
 167 721 167 721 258 721 c 0,24,25
 707 721 707 721 707 991 c 0,26,27
 707 1032 707 1032 688 1081 c 1,28,29
 666 1126 666 1126 621 1155 c 0,30,31
 570 1183 570 1183 487 1186 c 1,32,33
 555 1224 555 1224 555 1264 c 0,34,35
 555 1341 555 1341 432 1341 c 0,36,37
 358 1341 358 1341 311 1311 c 0,38,39
 266 1282 266 1282 244 1233 c 0,40,41
 221 1179 221 1179 221 1133 c 0,42,43
 221 989 221 989 358 989 c 0,44,45
 438 989 438 989 438 1085 c 0,46,47
 438 1119 438 1119 422 1151 c 1,48,49
 470 1161 470 1161 500 1161 c 0,50,51
 588 1161 588 1161 635 1108 c 128,-1,52
 682 1055 682 1055 682 985 c 0,53,54
 682 927 682 927 645 887 c 0,55,56
 605 840 605 840 539 815 c 0,57,58
 466 784 466 784 397 784 c 0,59,60
 263 784 263 784 180 831 c 0,61,62
 98 877 98 877 59 932 c 0,63,64
 20 983 20 983 20 1059 c 0,0,1
23 178 m 0,65,66
 23 258 23 258 80 315 c 0,67,68
 135 373 135 373 213 373 c 0,69,70
 296 370 296 370 354 315 c 0,71,72
 412 257 412 257 412 176 c 0,73,74
 412 98 412 98 354 43 c 0,75,76
 297 -14 297 -14 215 -14 c 128,-1,77
 133 -14 133 -14 78 41 c 128,-1,78
 23 96 23 96 23 178 c 0,65,66
EndSplineSet
EndChar

StartChar: at
Encoding: 64 64 18
Width: 1302
GlyphClass: 2
Flags: W
LayerCount: 2
Fore
SplineSet
20 682 m 0,0,1
 20 1012 20 1012 287 1237 c 0,2,3
 459 1379 459 1379 756 1382 c 0,4,5
 917 1382 917 1382 1043.5 1300.5 c 128,-1,6
 1170 1219 1170 1219 1236.5 1088.5 c 128,-1,7
 1303 958 1303 958 1303 805 c 0,8,9
 1303 641 1303 641 1228.5 489 c 128,-1,10
 1154 337 1154 337 1026 233 c 0,11,12
 968 184 968 184 893 184 c 0,13,14
 823 184 823 184 766 229 c 0,15,16
 708 274 708 274 694 373 c 1,17,-1
 694 424 l 1,18,19
 682 419 682 419 674 413 c 128,-1,20
 666 407 666 407 657 394.5 c 128,-1,21
 648 382 648 382 647 381 c 0,22,23
 610 333 610 333 550.5 301.5 c 128,-1,24
 491 270 491 270 436 270 c 0,25,26
 374 270 374 270 319 322 c 0,27,28
 264 372 264 372 243.5 428 c 128,-1,29
 223 484 223 484 221 567 c 0,30,31
 221 734 221 734 305 870 c 0,32,33
 395 1020 395 1020 543 1020 c 0,34,35
 677 1017 677 1017 743 975 c 0,36,37
 778 954 778 954 811 954 c 0,38,39
 841 954 841 954 875 971.5 c 128,-1,40
 909 989 909 989 935 1010.5 c 128,-1,41
 961 1032 961 1032 997.5 1049.5 c 128,-1,42
 1034 1067 1034 1067 1069 1067 c 0,43,44
 1098 1065 1098 1065 1110 1060.5 c 128,-1,45
 1122 1056 1122 1056 1122 1042 c 0,46,47
 1122 1024 1122 1024 1102 1004 c 0,48,49
 1021 916 1021 916 976.5 804.5 c 128,-1,50
 932 693 932 693 907 553 c 0,51,52
 895 467 895 467 895 424 c 0,53,54
 895 371 895 371 915.5 338 c 128,-1,55
 936 305 936 305 977 305 c 0,56,57
 1028 305 1028 305 1087 389 c 0,58,59
 1157 487 1157 487 1182.5 600.5 c 128,-1,60
 1208 714 1208 714 1208 858 c 0,61,62
 1207 949 1207 949 1175 1023.5 c 128,-1,63
 1143 1098 1143 1098 1093.5 1145.5 c 128,-1,64
 1044 1193 1044 1193 979.5 1225 c 128,-1,65
 915 1257 915 1257 853 1270.5 c 128,-1,66
 791 1284 791 1284 731 1284 c 0,67,68
 566 1284 566 1284 421.5 1206 c 128,-1,69
 277 1128 277 1128 190.5 994 c 128,-1,70
 104 860 104 860 104 705 c 2,71,-1
 104 672 l 2,72,73
 104 590 104 590 129 492 c 1,74,75
 158 328 158 328 289 223.5 c 128,-1,76
 420 119 420 119 592 119 c 0,77,78
 675 119 675 119 733 150 c 0,79,80
 761 164 761 164 795 164 c 0,81,82
 837 164 837 164 871.5 144.5 c 128,-1,83
 906 125 906 125 907 92 c 0,84,85
 907 46 907 46 861.5 21 c 128,-1,86
 816 -4 816 -4 762 -4 c 0,87,88
 556 -4 556 -4 330 121 c 0,89,90
 20 296 20 296 20 682 c 0,0,1
451 504 m 0,91,92
 451 464 451 464 473.5 429.5 c 128,-1,93
 496 395 496 395 520 395 c 0,94,95
 571 395 571 395 627 528 c 0,96,97
 678 650 678 650 741 811 c 0,98,99
 750 830 750 830 758 874 c 0,100,101
 758 885 758 885 749.5 894 c 128,-1,102
 741 903 741 903 729 903 c 0,103,104
 718 903 718 903 698 891 c 0,105,106
 595 828 595 828 524.5 724.5 c 128,-1,107
 454 621 454 621 451 504 c 0,91,92
EndSplineSet
EndChar

StartChar: A
Encoding: 65 65 19
Width: 1323
GlyphClass: 2
Flags: W
LayerCount: 2
Fore
SplineSet
20 16 m 0,0,1
 20 29 20 29 29 35 c 0,2,3
 32 36 32 36 39 39.5 c 128,-1,4
 46 43 46 43 51 45 c 0,5,6
 66 51 66 51 84 63 c 0,7,8
 98 74 98 74 115 98 c 1,9,-1
 494 1212 l 2,10,11
 504 1242 504 1242 504 1264 c 0,12,13
 504 1294 504 1294 492 1309 c 0,14,15
 478 1327 478 1327 467 1335 c 0,16,17
 451 1345 451 1345 451 1356 c 0,18,19
 451 1360 451 1360 457 1366 c 0,20,21
 465 1374 465 1374 492 1374 c 0,22,23
 505 1374 505 1374 551 1370 c 0,24,25
 597 1364 597 1364 655 1364 c 0,26,27
 708 1364 708 1364 766 1376 c 1,28,-1
 770 1376 l 2,29,30
 777 1376 777 1376 786 1370 c 0,31,32
 792 1363 792 1363 795 1356 c 0,33,34
 881 1110 881 1110 963 874 c 0,35,36
 1003 758 1003 758 1069.5 564 c 128,-1,37
 1136 370 1136 370 1163 291 c 0,38,39
 1223 114 1223 114 1231 94 c 1,40,41
 1246 72 1246 72 1262 63 c 0,42,43
 1282 51 1282 51 1292 47 c 0,44,45
 1304 42 1304 42 1315 35 c 0,46,47
 1323 30 1323 30 1323 18 c 0,48,49
 1323 0 1323 0 1307 -6 c 0,50,51
 1291 -14 1291 -14 1272 -14 c 1,52,-1
 1272 -16 l 1,53,-1
 946 -16 l 2,54,55
 923 -16 923 -16 899 -10 c 0,56,57
 874 -4 874 -4 874 14 c 0,58,59
 874 26 874 26 881 29 c 0,60,61
 883 30 883 30 887 33 c 128,-1,62
 891 36 891 36 893 37 c 0,63,64
 902 40 902 40 911 49 c 0,65,66
 917 55 917 55 920 70 c 1,67,68
 901 133 901 133 862 258 c 0,69,70
 859 267 859 267 854 285.5 c 128,-1,71
 849 304 849 304 846 313 c 0,72,73
 840 336 840 336 827 375.5 c 128,-1,74
 814 415 814 415 813 420 c 0,75,76
 761 462 761 462 702 487 c 0,77,78
 650 506 650 506 618 506 c 0,79,80
 575 506 575 506 553 487 c 0,81,82
 530 470 530 470 520 446 c 0,83,84
 516 430 516 430 516 422 c 0,85,86
 516 404 516 404 524 393 c 0,87,88
 529 381 529 381 539 371 c 0,89,90
 553 356 553 356 555 356 c 1,91,92
 555 354 555 354 559 354 c 1,93,94
 559 352 559 352 561 352 c 1,95,96
 543 311 543 311 508 293 c 0,97,98
 474 272 474 272 434 272 c 0,99,100
 379 272 379 272 334 311 c 0,101,102
 287 349 287 349 287 424 c 0,103,104
 287 463 287 463 309 512 c 0,105,106
 328 553 328 553 377 590 c 1,107,108
 425 621 425 621 496 621 c 0,109,110
 590 621 590 621 657 588 c 0,111,112
 725 553 725 553 764 520 c 1,113,-1
 764 518 l 1,114,115
 768 514 768 514 775 509 c 128,-1,116
 782 504 782 504 786 500.5 c 128,-1,117
 790 497 790 497 793 494 c 1,118,119
 787 515 787 515 773.5 559 c 128,-1,120
 760 603 760 603 747.5 644 c 128,-1,121
 735 685 735 685 723 725 c 0,122,123
 713 759 713 759 598 1147 c 1,124,-1
 422 643 l 1,125,126
 345 616 345 616 311 573 c 0,127,128
 254 504 254 504 254 424 c 0,129,130
 254 342 254 342 299 297 c 1,131,-1
 219 74 l 1,132,133
 219 56 219 56 229 49 c 0,134,135
 236 42 236 42 250 35 c 0,136,137
 256 33 256 33 264 29 c 0,138,139
 270 23 270 23 270 14 c 0,140,141
 270 -6 270 -6 244 -12 c 0,142,143
 217 -18 217 -18 195 -18 c 2,144,-1
 166 -16 l 1,145,-1
 76 -16 l 2,146,147
 62 -16 62 -16 41 -10 c 128,-1,148
 20 -4 20 -4 20 16 c 0,0,1
EndSplineSet
EndChar

StartChar: B
Encoding: 66 66 20
Width: 1028
GlyphClass: 2
Flags: W
LayerCount: 2
Fore
SplineSet
20 4 m 0,0,1
 20 31 20 31 68 63 c 0,2,3
 100 85 100 85 100 205 c 2,4,-1
 100 1155 l 2,5,6
 100 1272 100 1272 68 1294 c 0,7,8
 20 1326 20 1326 20 1354 c 0,9,10
 20 1374 20 1374 41 1374 c 0,11,12
 94 1374 94 1374 214.5 1381.5 c 128,-1,13
 335 1389 335 1389 397 1389 c 0,14,15
 471 1389 471 1389 529 1382 c 128,-1,16
 587 1375 587 1375 645 1353.5 c 128,-1,17
 703 1332 703 1332 740.5 1296.5 c 128,-1,18
 778 1261 778 1261 801.5 1201 c 128,-1,19
 825 1141 825 1141 825 1059 c 0,20,21
 825 973 825 973 771 890 c 128,-1,22
 717 807 717 807 598 760 c 1,23,-1
 627 762 l 1,24,25
 789 762 789 762 908.5 651.5 c 128,-1,26
 1028 541 1028 541 1028 391 c 0,27,28
 1028 282 1028 282 987 196 c 128,-1,29
 946 110 946 110 875 57.5 c 128,-1,30
 804 5 804 5 713.5 -22 c 128,-1,31
 623 -49 623 -49 518 -49 c 0,32,33
 431 -49 431 -49 363.5 -28.5 c 128,-1,34
 296 -8 296 -8 258.5 22 c 128,-1,35
 221 52 221 52 197 91 c 128,-1,36
 173 130 173 130 165.5 161 c 128,-1,37
 158 192 158 192 158 221 c 0,38,39
 158 334 158 334 221.5 392.5 c 128,-1,40
 285 451 285 451 369 451 c 0,41,42
 422 451 422 451 462.5 429.5 c 128,-1,43
 503 408 503 408 518 369 c 1,44,45
 514 367 514 367 508 364 c 128,-1,46
 502 361 502 361 486 349 c 128,-1,47
 470 337 470 337 458 323 c 128,-1,48
 446 309 446 309 436 285.5 c 128,-1,49
 426 262 426 262 426 236 c 0,50,51
 426 129 426 129 461 67.5 c 128,-1,52
 496 6 496 6 545 6 c 0,53,54
 607 6 607 6 653.5 99.5 c 128,-1,55
 700 193 700 193 700 367 c 0,56,57
 700 421 700 421 686 474.5 c 128,-1,58
 672 528 672 528 644 575.5 c 128,-1,59
 616 623 616 623 567 652.5 c 128,-1,60
 518 682 518 682 455 682 c 0,61,62
 426 682 426 682 381 672 c 1,63,-1
 381 483 l 1,64,65
 342 483 342 483 322 479 c 0,66,67
 242 464 242 464 184.5 398.5 c 128,-1,68
 127 333 127 333 127 221 c 0,69,70
 127 123 127 123 184 47 c 0,71,72
 217 -2 217 -2 272 -29 c 1,73,74
 223 -27 223 -27 170 -24 c 128,-1,75
 117 -21 117 -21 84 -18.5 c 128,-1,76
 51 -16 51 -16 41 -16 c 0,77,78
 20 -16 20 -16 20 4 c 0,0,1
381 756 m 1,79,80
 434 770 434 770 472.5 809.5 c 128,-1,81
 511 849 511 849 528.5 898 c 128,-1,82
 546 947 546 947 553.5 986 c 128,-1,83
 561 1025 561 1025 561 1055 c 0,84,85
 561 1184 561 1184 505 1260 c 128,-1,86
 449 1336 449 1336 381 1341 c 1,87,-1
 381 756 l 1,79,80
EndSplineSet
EndChar

StartChar: C
Encoding: 67 67 21
Width: 1179
GlyphClass: 2
Flags: W
LayerCount: 2
Fore
SplineSet
20 659 m 0,0,1
 20 785 20 785 54 903.5 c 128,-1,2
 88 1022 88 1022 153 1121.5 c 128,-1,3
 218 1221 218 1221 322 1291 c 128,-1,4
 426 1361 426 1361 555 1382 c 0,5,6
 605 1391 605 1391 653 1391 c 0,7,8
 835 1391 835 1391 963 1298 c 0,9,10
 1049 1233 1049 1233 1049 1147 c 0,11,12
 1049 1095 1049 1095 1012 1061 c 0,13,14
 955 1010 955 1010 889 1010 c 128,-1,15
 823 1010 823 1010 773 1056.5 c 128,-1,16
 723 1103 723 1103 721 1159 c 0,17,18
 715 1337 715 1337 606 1337 c 1,19,-1
 584 1335 l 1,20,21
 519 1325 519 1325 470 1233.5 c 128,-1,22
 421 1142 421 1142 397 1007.5 c 128,-1,23
 373 873 373 873 373 719 c 0,24,25
 373 594 373 594 390 480 c 128,-1,26
 407 366 407 366 440.5 272.5 c 128,-1,27
 474 179 474 179 530.5 123.5 c 128,-1,28
 587 68 587 68 659 68 c 0,29,30
 715 68 715 68 770.5 90 c 128,-1,31
 826 112 826 112 869 147.5 c 128,-1,32
 912 183 912 183 951 226 c 128,-1,33
 990 269 990 269 1017.5 311.5 c 128,-1,34
 1045 354 1045 354 1065.5 390.5 c 128,-1,35
 1086 427 1086 427 1096 448.5 c 128,-1,36
 1106 470 1106 470 1106 471 c 1,37,-1
 1180 440 l 1,38,39
 981 -45 981 -45 631 -45 c 0,40,41
 363 -45 363 -45 193 152 c 0,42,43
 108 251 108 251 64 383.5 c 128,-1,44
 20 516 20 516 20 659 c 0,0,1
EndSplineSet
EndChar

StartChar: D
Encoding: 68 68 22
Width: 1107
GlyphClass: 2
Flags: W
LayerCount: 2
Fore
SplineSet
20 4 m 0,0,1
 20 30 20 30 70 63 c 0,2,3
 102 85 102 85 102 205 c 2,4,-1
 102 1155 l 2,5,6
 102 1272 102 1272 70 1294 c 0,7,8
 23 1325 23 1325 23 1354 c 0,9,10
 23 1374 23 1374 43 1374 c 0,11,12
 148 1374 148 1374 266 1378 c 128,-1,13
 384 1382 384 1382 410 1382 c 2,14,-1
 444 1382 l 1,15,16
 655 1377 655 1377 806 1289.5 c 128,-1,17
 957 1202 957 1202 1032.5 1051 c 128,-1,18
 1108 900 1108 900 1108 698 c 0,19,20
 1108 610 1108 610 1090.5 514.5 c 128,-1,21
 1073 419 1073 419 1030.5 317 c 128,-1,22
 988 215 988 215 925.5 135 c 128,-1,23
 863 55 863 55 763.5 3 c 128,-1,24
 664 -49 664 -49 543 -49 c 0,25,26
 456 -49 456 -49 388.5 -28.5 c 128,-1,27
 321 -8 321 -8 283.5 22 c 128,-1,28
 246 52 246 52 222.5 91 c 128,-1,29
 199 130 199 130 191.5 161 c 128,-1,30
 184 192 184 192 184 221 c 0,31,32
 184 334 184 334 247.5 392.5 c 128,-1,33
 311 451 311 451 395 451 c 0,34,35
 446 451 446 451 487 429.5 c 128,-1,36
 528 408 528 408 543 369 c 1,37,38
 539 366 539 366 532.5 360.5 c 128,-1,39
 526 355 526 355 509.5 335.5 c 128,-1,40
 493 316 493 316 480 294 c 128,-1,41
 467 272 467 272 456.5 237.5 c 128,-1,42
 446 203 446 203 446 166 c 0,43,44
 446 102 446 102 476.5 60 c 128,-1,45
 507 18 507 18 549 18 c 0,46,47
 617 18 617 18 667.5 74.5 c 128,-1,48
 718 131 718 131 745.5 230.5 c 128,-1,49
 773 330 773 330 786 446.5 c 128,-1,50
 799 563 799 563 799 700 c 0,51,52
 799 820 799 820 778.5 929.5 c 128,-1,53
 758 1039 758 1039 718 1131 c 128,-1,54
 678 1223 678 1223 609.5 1278 c 128,-1,55
 541 1333 541 1333 453 1333 c 0,56,57
 438 1333 438 1333 406 1329 c 1,58,-1
 406 483 l 1,59,-1
 393 483 l 2,60,61
 280 483 280 483 216 406.5 c 128,-1,62
 152 330 152 330 152 223 c 0,63,64
 152 144 152 144 189 76 c 128,-1,65
 226 8 226 8 297 -29 c 1,66,67
 248 -27 248 -27 189 -24 c 128,-1,68
 130 -21 130 -21 91.5 -18.5 c 128,-1,69
 53 -16 53 -16 41 -16 c 0,70,71
 20 -16 20 -16 20 4 c 0,0,1
EndSplineSet
EndChar

StartChar: E
Encoding: 69 69 23
Width: 964
GlyphClass: 2
Flags: W
LayerCount: 2
Fore
SplineSet
20 1358 m 0,0,1
 20 1374 20 1374 37 1374 c 2,2,-1
 41 1374 l 1,3,4
 163 1358 163 1358 358 1358 c 0,5,6
 567 1358 567 1358 807 1374 c 1,7,-1
 809 1374 l 2,8,9
 836 1374 836 1374 864 1343 c 0,10,11
 892 1307 892 1307 911 1268 c 0,12,13
 930 1222 930 1222 930 1196 c 0,14,15
 930 1173 930 1173 913 1163 c 1,16,-1
 911 1163 l 2,17,18
 899 1163 899 1163 883 1188 c 0,19,20
 861 1216 861 1216 825 1245 c 0,21,22
 785 1274 785 1274 721 1274 c 2,23,-1
 625 1274 l 2,24,25
 586 1272 586 1272 514 1272 c 2,26,-1
 424 1272 l 1,27,-1
 424 1270 l 1,28,-1
 387 1270 l 1,29,-1
 387 874 l 1,30,-1
 391 874 l 2,31,32
 468 874 468 874 518 858 c 0,33,34
 558 845 558 845 594 825 c 0,35,36
 627 805 627 805 657 805 c 0,37,38
 682 805 682 805 698 821 c 0,39,40
 713 836 713 836 713 852 c 0,41,42
 713 885 713 885 670 903 c 1,43,44
 697 938 697 938 745 938 c 0,45,46
 782 938 782 938 817 911 c 0,47,48
 850 885 850 885 850 825 c 0,49,50
 850 784 850 784 819 748 c 0,51,52
 785 711 785 711 713 711 c 1,53,-1
 680 713 l 1,54,55
 640 722 640 722 598 748 c 0,56,57
 549 782 549 782 510 782 c 0,58,59
 474 782 474 782 453 727 c 1,60,-1
 449 705 l 2,61,62
 449 687 449 687 459 670 c 0,63,64
 470 648 470 648 479 639 c 0,65,66
 482 634 482 634 500 616 c 0,67,68
 504 612 504 612 504 610 c 1,69,-1
 506 610 l 1,70,-1
 508 608 l 1,71,72
 472 556 472 556 432 537 c 0,73,74
 381 514 381 514 344 514 c 0,75,76
 279 514 279 514 231 559 c 0,77,78
 182 602 182 602 182 680 c 0,79,80
 182 715 182 715 205 766 c 0,81,82
 217 795 217 795 246 821 c 1,83,84
 228 809 228 809 215 793 c 0,85,86
 158 724 158 724 158 649 c 0,87,88
 158 565 158 565 203 526 c 1,89,90
 245 484 245 484 297 475 c 1,91,-1
 301 475 l 1,92,93
 321 471 321 471 332 471 c 0,94,95
 359 471 359 471 389 481 c 1,96,-1
 389 137 l 2,97,98
 389 117 389 117 406 100 c 0,99,100
 422 84 422 84 442 84 c 2,101,-1
 756 82 l 2,102,103
 823 82 823 82 862 113 c 0,104,105
 899 140 899 140 918 168 c 0,106,107
 934 193 934 193 946 193 c 2,108,-1
 948 193 l 1,109,110
 965 183 965 183 965 160 c 0,111,112
 965 131 965 131 946 88 c 0,113,114
 928 44 928 44 901 14 c 0,115,116
 876 -18 876 -18 848 -18 c 2,117,-1
 844 -18 l 1,118,119
 685 0 685 0 463 0 c 0,120,121
 223 0 223 0 45 -18 c 1,122,-1
 41 -18 l 2,123,124
 25 -18 25 -18 25 -2 c 0,125,126
 25 19 25 19 72 57 c 0,127,128
 91 71 91 71 98 115 c 0,129,130
 104 156 104 156 104 197 c 2,131,-1
 102 1155 l 2,132,133
 102 1200 102 1200 96 1241 c 128,-1,134
 90 1282 90 1282 68 1298 c 0,135,136
 20 1337 20 1337 20 1358 c 0,0,1
EndSplineSet
EndChar

StartChar: F
Encoding: 70 70 24
Width: 929
GlyphClass: 2
Flags: W
LayerCount: 2
Fore
SplineSet
20 1360 m 0,0,1
 20 1374 20 1374 35 1374 c 2,2,-1
 41 1374 l 1,3,4
 117 1358 117 1358 338 1358 c 0,5,6
 581 1358 581 1358 807 1374 c 1,7,-1
 809 1374 l 2,8,9
 846 1374 846 1374 888 1307.5 c 128,-1,10
 930 1241 930 1241 930 1194 c 0,11,12
 930 1169 930 1169 913 1163 c 1,13,-1
 911 1163 l 2,14,15
 903 1163 903 1163 888 1180.5 c 128,-1,16
 873 1198 873 1198 855 1218.5 c 128,-1,17
 837 1239 837 1239 800.5 1256.5 c 128,-1,18
 764 1274 764 1274 719 1274 c 2,19,-1
 385 1270 l 1,20,-1
 387 874 l 1,21,-1
 391 874 l 2,22,23
 448 874 448 874 494.5 863 c 128,-1,24
 541 852 541 852 565 839.5 c 128,-1,25
 589 827 589 827 613.5 816 c 128,-1,26
 638 805 638 805 657 805 c 0,27,28
 682 805 682 805 697.5 818.5 c 128,-1,29
 713 832 713 832 713 852 c 0,30,31
 713 868 713 868 701.5 882.5 c 128,-1,32
 690 897 690 897 668 903 c 1,33,34
 692 938 692 938 743 938 c 0,35,36
 786 938 786 938 818 909.5 c 128,-1,37
 850 881 850 881 850 825 c 0,38,39
 850 777 850 777 816 744 c 128,-1,40
 782 711 782 711 713 711 c 2,41,-1
 678 713 l 2,42,43
 653 716 653 716 594 749 c 128,-1,44
 535 782 535 782 510 782 c 0,45,46
 469 782 469 782 453 727 c 1,47,-1
 449 705 l 1,48,49
 449 682 449 682 463.5 658 c 128,-1,50
 478 634 478 634 492 621 c 2,51,-1
 506 608 l 1,52,53
 475 561 475 561 431.5 537.5 c 128,-1,54
 388 514 388 514 342 514 c 0,55,56
 275 514 275 514 227.5 559.5 c 128,-1,57
 180 605 180 605 180 680 c 0,58,59
 180 717 180 717 197.5 756 c 128,-1,60
 215 795 215 795 248 825 c 1,61,62
 238 818 238 818 213 793 c 0,63,64
 158 732 158 732 158 649 c 0,65,66
 158 573 158 573 199 529.5 c 128,-1,67
 240 486 240 486 295 475 c 0,68,69
 319 471 319 471 330 471 c 0,70,71
 357 471 357 471 387 481 c 1,72,-1
 387 160 l 1,73,74
 391 75 391 75 420 55 c 0,75,76
 467 24 467 24 467 -4 c 0,77,78
 467 -20 467 -20 451 -20 c 2,79,-1
 446 -20 l 1,80,81
 402 -10 402 -10 264 -10 c 0,82,83
 115 -10 115 -10 43 -20 c 1,84,-1
 39 -20 l 2,85,86
 23 -20 23 -20 23 -4 c 0,87,88
 23 24 23 24 70 55 c 0,89,90
 104 78 104 78 104 188 c 2,91,-1
 102 272 l 1,92,-1
 100 1159 l 2,93,94
 100 1276 100 1276 68 1298 c 0,95,96
 20 1330 20 1330 20 1360 c 0,0,1
EndSplineSet
EndChar

StartChar: G
Encoding: 71 71 25
Width: 1241
GlyphClass: 2
Flags: W
LayerCount: 2
Fore
SplineSet
20 659 m 0,0,1
 20 785 20 785 54 903 c 128,-1,2
 88 1021 88 1021 153 1120.5 c 128,-1,3
 218 1220 218 1220 321 1289.5 c 128,-1,4
 424 1359 424 1359 553 1380 c 0,5,6
 606 1389 606 1389 655 1389 c 0,7,8
 746 1389 746 1389 827.5 1363 c 128,-1,9
 909 1337 909 1337 963 1296 c 0,10,11
 1047 1233 1047 1233 1047 1145 c 0,12,13
 1047 1091 1047 1091 1012 1061 c 0,14,15
 950 1008 950 1008 887 1008 c 0,16,17
 821 1008 821 1008 772 1054.5 c 128,-1,18
 723 1101 723 1101 721 1157 c 0,19,20
 713 1337 713 1337 604 1337 c 1,21,-1
 584 1335 l 2,22,23
 519 1325 519 1325 470 1233.5 c 128,-1,24
 421 1142 421 1142 397 1007.5 c 128,-1,25
 373 873 373 873 373 719 c 0,26,27
 373 594 373 594 390 480 c 128,-1,28
 407 366 407 366 440.5 272 c 128,-1,29
 474 178 474 178 530.5 122 c 128,-1,30
 587 66 587 66 659 66 c 0,31,32
 732 66 732 66 785.5 144 c 128,-1,33
 839 222 839 222 852 350 c 1,34,-1
 852 496 l 2,35,36
 852 536 852 536 849 558 c 128,-1,37
 846 580 846 580 833.5 601 c 128,-1,38
 821 622 821 622 795.5 633 c 128,-1,39
 770 644 770 644 727 651 c 2,40,-1
 711 653 l 1,41,42
 665 653 665 653 639.5 618 c 128,-1,43
 614 583 614 583 614 539 c 0,44,45
 614 506 614 506 629 483.5 c 128,-1,46
 644 461 644 461 672 461 c 0,47,48
 712 461 712 461 737 482 c 128,-1,49
 762 503 762 503 766 522 c 1,50,51
 827 478 827 478 827 408 c 0,52,53
 827 346 827 346 775.5 298 c 128,-1,54
 724 250 724 250 647 250 c 0,55,56
 561 250 561 250 496.5 305.5 c 128,-1,57
 432 361 432 361 432 451 c 0,58,59
 432 567 432 567 509 634.5 c 128,-1,60
 586 702 586 702 711 702 c 0,61,62
 744 702 744 702 784 696 c 0,63,64
 833 688 833 688 913 688 c 0,65,66
 943 688 943 688 976 689.5 c 128,-1,67
 1009 691 1009 691 1038 693 c 128,-1,68
 1067 695 1067 695 1095 697.5 c 128,-1,69
 1123 700 1123 700 1146 702 c 128,-1,70
 1169 704 1169 704 1186 706 c 128,-1,71
 1203 708 1203 708 1213 710 c 2,72,-1
 1223 711 l 2,73,74
 1241 711 1241 711 1241 694 c 0,75,76
 1241 666 1241 666 1194 635 c 1,77,-1
 1189 630 l 2,78,79
 1184 626 1184 626 1169 616 c 0,80,81
 1149 604 1149 604 1143 566.5 c 128,-1,82
 1137 529 1137 529 1137 459 c 2,83,-1
 1137 264 l 1,84,-1
 1139 262 l 1,85,-1
 1137 258 l 1,86,87
 1106 175 1106 175 1012 102.5 c 128,-1,88
 918 30 918 30 814.5 -8.5 c 128,-1,89
 711 -47 711 -47 631 -47 c 0,90,91
 359 -47 359 -47 193 150 c 0,92,93
 108 251 108 251 64 384 c 128,-1,94
 20 517 20 517 20 659 c 0,0,1
EndSplineSet
EndChar

StartChar: H
Encoding: 72 72 26
Width: 1173
GlyphClass: 2
Flags: W
LayerCount: 2
Fore
SplineSet
20 -2 m 0,0,1
 20 25 20 25 68 57 c 0,2,3
 84 67 84 67 90 89 c 128,-1,4
 96 111 96 111 99 178.5 c 128,-1,5
 102 246 102 246 102 406 c 2,6,-1
 100 1083 l 1,7,-1
 100 1159 l 2,8,9
 100 1276 100 1276 68 1298 c 0,10,11
 20 1330 20 1330 20 1360 c 0,12,13
 20 1374 20 1374 35 1374 c 2,14,-1
 39 1374 l 1,15,16
 98 1362 98 1362 174 1362 c 0,17,18
 224 1362 224 1362 299 1370 c 128,-1,19
 374 1378 374 1378 399 1378 c 0,20,21
 416 1378 416 1378 444 1374 c 0,22,23
 465 1370 465 1370 465 1354 c 0,24,25
 465 1329 465 1329 418 1298 c 0,26,27
 389 1279 389 1279 385 1194 c 1,28,-1
 385 827 l 1,29,30
 288 818 288 818 233 756 c 128,-1,31
 178 694 178 694 178 616 c 0,32,33
 178 551 178 551 216 501 c 128,-1,34
 254 451 254 451 322 438 c 0,35,36
 334 436 334 436 354 436 c 0,37,38
 375 436 375 436 385 438 c 1,39,-1
 385 160 l 1,40,41
 389 73 389 73 418 57 c 0,42,43
 465 26 465 26 465 -2 c 0,44,45
 465 -18 465 -18 449 -18 c 2,46,-1
 444 -18 l 1,47,48
 376 -12 376 -12 268 -12 c 0,49,50
 114 -12 114 -12 39 -18 c 1,51,-1
 35 -18 l 2,52,53
 20 -18 20 -18 20 -2 c 0,0,1
203 618 m 0,54,55
 203 689 203 689 257.5 747 c 128,-1,56
 312 805 312 805 412 805 c 0,57,58
 483 805 483 805 548.5 783 c 128,-1,59
 614 761 614 761 655.5 732.5 c 128,-1,60
 697 704 697 704 734 666 c 128,-1,61
 771 628 771 628 785 608 c 128,-1,62
 799 588 799 588 809 571 c 1,63,-1
 809 1155 l 2,64,65
 809 1275 809 1275 774 1298 c 0,66,67
 727 1329 727 1329 727 1358 c 0,68,69
 727 1374 727 1374 741 1374 c 2,70,-1
 748 1374 l 1,71,72
 807 1362 807 1362 870 1362 c 0,73,74
 920 1362 920 1362 1003.5 1369 c 128,-1,75
 1087 1376 1087 1376 1114 1376 c 0,76,77
 1143 1376 1143 1376 1153 1374 c 0,78,79
 1174 1370 1174 1370 1174 1354 c 0,80,81
 1174 1331 1174 1331 1124 1298 c 0,82,83
 1096 1278 1096 1278 1092 1194 c 1,84,-1
 1092 160 l 1,85,86
 1096 74 1096 74 1124 57 c 0,87,88
 1174 24 1174 24 1174 -4 c 0,89,90
 1174 -18 1174 -18 1159 -18 c 2,91,-1
 1153 -18 l 1,92,93
 1076 -6 1076 -6 977 -6 c 0,94,95
 862 -6 862 -6 748 -18 c 1,96,-1
 743 -18 l 2,97,98
 727 -18 727 -18 727 -2 c 0,99,100
 727 26 727 26 774 57 c 0,101,102
 809 80 809 80 809 201 c 2,103,-1
 809 389 l 2,104,105
 809 456 809 456 754 522 c 128,-1,106
 699 588 699 588 627.5 626 c 128,-1,107
 556 664 556 664 500 664 c 0,108,109
 450 664 450 664 436 631 c 0,110,111
 430 616 430 616 430 602 c 0,112,113
 430 584 430 584 441 568 c 128,-1,114
 452 552 452 552 464 546 c 2,115,-1
 475 539 l 1,116,117
 461 501 461 501 427.5 481 c 128,-1,118
 394 461 394 461 354 461 c 0,119,120
 294 461 294 461 248.5 502.5 c 128,-1,121
 203 544 203 544 203 618 c 0,54,55
EndSplineSet
EndChar

StartChar: I
Encoding: 73 73 27
Width: 466
GlyphClass: 2
Flags: W
LayerCount: 2
Fore
SplineSet
20 -4 m 0,0,1
 20 23 20 23 68 55 c 0,2,3
 83 64 83 64 91 91 c 128,-1,4
 99 118 99 118 100.5 141 c 128,-1,5
 102 164 102 164 102 203 c 2,6,-1
 102 1153 l 2,7,8
 102 1192 102 1192 100.5 1214.5 c 128,-1,9
 99 1237 99 1237 91 1263 c 128,-1,10
 83 1289 83 1289 68 1298 c 0,11,12
 20 1330 20 1330 20 1358 c 0,13,14
 20 1376 20 1376 39 1376 c 2,15,-1
 41 1376 l 1,16,17
 149 1360 149 1360 274 1360 c 0,18,19
 381 1360 381 1360 446 1376 c 1,20,-1
 451 1376 l 2,21,22
 467 1376 467 1376 467 1360 c 0,23,24
 467 1329 467 1329 420 1298 c 0,25,26
 389 1281 389 1281 385 1196 c 1,27,-1
 385 160 l 1,28,29
 389 75 389 75 420 55 c 0,30,31
 467 24 467 24 467 -4 c 0,32,33
 467 -20 467 -20 453 -20 c 2,34,-1
 446 -20 l 1,35,36
 389 -6 389 -6 274 -6 c 0,37,38
 136 -6 136 -6 41 -20 c 1,39,-1
 37 -20 l 2,40,41
 20 -20 20 -20 20 -4 c 0,0,1
EndSplineSet
EndChar

StartChar: J
Encoding: 74 74 28
Width: 1021
GlyphClass: 2
Flags: W
LayerCount: 2
Fore
SplineSet
20 307 m 0,0,1
 20 407 20 407 96 463 c 0,2,3
 157 510 157 510 219 510 c 0,4,5
 280 510 280 510 320 466 c 128,-1,6
 360 422 360 422 360 354 c 0,7,8
 360 322 360 322 348 281 c 0,9,10
 334 240 334 240 334 199 c 0,11,12
 334 127 334 127 374.5 80 c 128,-1,13
 415 33 415 33 465 33 c 0,14,15
 651 33 651 33 651 725 c 0,16,17
 651 794 651 794 649 877 c 128,-1,18
 647 960 647 960 647 965 c 0,19,20
 681 1003 681 1003 690 1036 c 0,21,22
 700 1066 700 1066 700 1090 c 0,23,24
 700 1154 700 1154 645 1206 c 1,25,26
 640 1321 640 1321 582 1329 c 2,27,-1
 563 1331 l 1,28,29
 521 1331 521 1331 498 1299 c 128,-1,30
 475 1267 475 1267 475 1225 c 0,31,32
 475 1190 475 1190 492 1164.5 c 128,-1,33
 509 1139 509 1139 537 1139 c 0,34,35
 577 1139 577 1139 596.5 1160 c 128,-1,36
 616 1181 616 1181 618 1202 c 1,37,38
 680 1154 680 1154 680 1085 c 0,39,40
 680 1022 680 1022 629.5 975 c 128,-1,41
 579 928 579 928 500 928 c 0,42,43
 423 928 423 928 355 984.5 c 128,-1,44
 287 1041 287 1041 287 1130 c 0,45,46
 287 1244 287 1244 362.5 1312 c 128,-1,47
 438 1380 438 1380 559 1380 c 0,48,49
 596 1380 596 1380 637 1374 c 0,50,51
 701 1364 701 1364 799 1364 c 0,52,53
 830 1364 830 1364 861.5 1365 c 128,-1,54
 893 1366 893 1366 917 1367.5 c 128,-1,55
 941 1369 941 1369 960 1370.5 c 128,-1,56
 979 1372 979 1372 990 1373 c 2,57,-1
 1001 1374 l 2,58,59
 1022 1374 1022 1374 1022 1356 c 0,60,61
 1022 1329 1022 1329 975 1298 c 0,62,63
 946 1278 946 1278 942 1194 c 1,64,-1
 942 768 l 2,65,66
 942 663 942 663 939.5 590.5 c 128,-1,67
 937 518 937 518 926.5 427 c 128,-1,68
 916 336 916 336 896.5 276 c 128,-1,69
 877 216 877 216 842 152.5 c 128,-1,70
 807 89 807 89 757 52.5 c 128,-1,71
 707 16 707 16 633 -7.5 c 128,-1,72
 559 -31 559 -31 465 -31 c 0,73,74
 353 -31 353 -31 249 15.5 c 128,-1,75
 145 62 145 62 74 154 c 0,76,77
 20 221 20 221 20 307 c 0,0,1
EndSplineSet
EndChar

StartChar: K
Encoding: 75 75 29
Width: 1202
GlyphClass: 2
Flags: W
LayerCount: 2
Fore
SplineSet
20 -4 m 2,0,1
 20 23 20 23 68 55 c 0,2,3
 100 75 100 75 100 195 c 2,4,-1
 100 1157 l 2,5,6
 100 1230 100 1230 90 1266 c 0,7,8
 79 1291 79 1291 68 1298 c 0,9,10
 20 1330 20 1330 20 1360 c 0,11,12
 20 1376 20 1376 37 1376 c 2,13,-1
 41 1376 l 1,14,15
 147 1360 147 1360 266 1360 c 0,16,17
 381 1360 381 1360 444 1376 c 1,18,-1
 449 1376 l 2,19,20
 465 1376 465 1376 465 1362 c 2,21,-1
 467 1354 l 1,22,23
 467 1328 467 1328 418 1296 c 0,24,25
 389 1276 389 1276 385 1192 c 1,26,-1
 385 770 l 1,27,-1
 831 1315 l 2,28,29
 840 1327 840 1327 840 1335 c 0,30,31
 840 1342 840 1342 828.5 1349 c 128,-1,32
 817 1356 817 1356 817 1362 c 128,-1,33
 817 1368 817 1368 851 1372 c 128,-1,34
 885 1376 885 1376 928 1376 c 0,35,36
 1031 1376 1031 1376 1034 1354 c 0,37,38
 1034 1349 1034 1349 1018.5 1346 c 128,-1,39
 1003 1343 1003 1343 978.5 1333 c 128,-1,40
 954 1323 954 1323 938 1303 c 2,41,-1
 649 936 l 1,42,-1
 932 356 l 2,43,44
 951 320 951 320 977.5 264.5 c 128,-1,45
 1004 209 1004 209 1020 177.5 c 128,-1,46
 1036 146 1036 146 1059 111 c 128,-1,47
 1082 76 1082 76 1109.5 57 c 128,-1,48
 1137 38 1137 38 1171 31 c 0,49,50
 1202 25 1202 25 1202 6 c 0,51,52
 1202 -4 1202 -4 1191 -11 c 128,-1,53
 1180 -18 1180 -18 1161 -18 c 2,54,-1
 700 -18 l 2,55,56
 662 -18 662 -18 662 -2 c 0,57,58
 662 9 662 9 675.5 21 c 128,-1,59
 689 33 689 33 707 37 c 0,60,61
 741 47 741 47 741 92 c 0,62,63
 741 111 741 111 735 123 c 0,64,65
 688 217 688 217 647.5 299.5 c 128,-1,66
 607 382 607 382 579 439 c 128,-1,67
 551 496 551 496 528.5 542 c 128,-1,68
 506 588 506 588 492.5 616.5 c 128,-1,69
 479 645 479 645 470 664 c 128,-1,70
 461 683 461 683 457 692 c 2,71,-1
 453 700 l 1,72,-1
 385 606 l 1,73,-1
 385 182 l 2,74,75
 385 75 385 75 418 55 c 0,76,77
 465 22 465 22 465 -4 c 0,78,79
 465 -20 465 -20 451 -20 c 2,80,-1
 444 -20 l 1,81,82
 387 -6 387 -6 272 -6 c 0,83,84
 128 -6 128 -6 41 -20 c 1,85,-1
 37 -20 l 2,86,87
 31 -20 31 -20 26.5 -17 c 128,-1,88
 22 -14 22 -14 21 -11 c 2,89,-1
 20 -8 l 1,90,-1
 20 -4 l 2,0,1
EndSplineSet
EndChar

StartChar: L
Encoding: 76 76 30
Width: 1009
GlyphClass: 2
Flags: W
LayerCount: 2
Fore
SplineSet
20 4 m 0,0,1
 20 31 20 31 68 63 c 0,2,3
 100 84 100 84 100 233 c 2,4,-1
 100 1165 l 2,5,6
 100 1283 100 1283 68 1305 c 0,7,8
 20 1337 20 1337 20 1364 c 0,9,10
 20 1380 20 1380 39 1380 c 2,11,-1
 444 1380 l 2,12,13
 465 1380 465 1380 465 1362 c 0,14,15
 465 1336 465 1336 418 1305 c 0,16,17
 389 1286 389 1286 385 1200 c 1,18,-1
 385 143 l 2,19,20
 385 121 385 121 399.5 105.5 c 128,-1,21
 414 90 414 90 436 90 c 2,22,-1
 799 88 l 2,23,24
 844 88 844 88 880.5 105.5 c 128,-1,25
 917 123 917 123 935 143.5 c 128,-1,26
 953 164 953 164 968 181.5 c 128,-1,27
 983 199 983 199 991 199 c 2,28,-1
 993 199 l 1,29,30
 1010 193 1010 193 1010 168 c 0,31,32
 1010 121 1010 121 967 53.5 c 128,-1,33
 924 -14 924 -14 887 -14 c 2,34,-1
 39 -14 l 2,35,36
 20 -14 20 -14 20 4 c 0,0,1
EndSplineSet
EndChar

StartChar: M
Encoding: 77 77 31
Width: 1443
GlyphClass: 2
Flags: W
LayerCount: 2
Fore
SplineSet
20 0 m 0,0,1
 20 29 20 29 68 61 c 0,2,3
 100 83 100 83 100 201 c 2,4,-1
 100 1163 l 2,5,6
 100 1281 100 1281 68 1303 c 0,7,8
 20 1335 20 1335 20 1364 c 0,9,10
 20 1378 20 1378 33 1378 c 2,11,-1
 39 1378 l 1,12,13
 110 1360 110 1360 231 1360 c 0,14,15
 347 1360 347 1360 473 1378 c 1,16,-1
 479 1378 l 2,17,18
 507 1378 507 1378 518 1348 c 2,19,-1
 780 614 l 1,20,-1
 1030 1346 l 2,21,22
 1035 1359 1035 1359 1045.5 1369.5 c 128,-1,23
 1056 1380 1056 1380 1067 1380 c 2,24,-1
 1075 1378 l 2,25,26
 1116 1364 1116 1364 1221 1364 c 0,27,28
 1355 1364 1355 1364 1423 1378 c 1,29,-1
 1427 1378 l 2,30,31
 1444 1378 1444 1378 1444 1362 c 0,32,33
 1444 1334 1444 1334 1397 1303 c 0,34,35
 1368 1284 1368 1284 1364 1198 c 1,36,-1
 1364 164 l 1,37,38
 1368 78 1368 78 1397 59 c 0,39,40
 1444 28 1444 28 1444 0 c 0,41,42
 1444 -16 1444 -16 1427 -16 c 2,43,-1
 1423 -16 l 1,44,45
 1360 0 1360 0 1253 0 c 0,46,47
 1120 0 1120 0 1020 -16 c 1,48,-1
 1016 -16 l 2,49,50
 999 -16 999 -16 999 0 c 0,51,52
 999 27 999 27 1047 59 c 0,53,54
 1063 69 1063 69 1069 92 c 128,-1,55
 1075 115 1075 115 1078 186 c 128,-1,56
 1081 257 1081 257 1081 426 c 2,57,-1
 1079 1141 l 2,58,59
 1079 1149 1079 1149 1069 1149 c 0,60,61
 1061 1149 1061 1149 1061 1143 c 2,62,-1
 698 74 l 2,63,64
 692 53 692 53 668 53 c 0,65,66
 646 53 646 53 637 74 c 2,67,-1
 258 1139 l 2,68,69
 258 1145 258 1145 250 1145 c 0,70,71
 240 1145 240 1145 240 1137 c 2,72,-1
 242 164 l 2,73,74
 246 77 246 77 274 61 c 0,75,76
 322 29 322 29 322 4 c 0,77,78
 322 -14 322 -14 301 -14 c 2,79,-1
 292 -13 l 2,80,81
 284 -12 284 -12 269.5 -10 c 128,-1,82
 255 -8 255 -8 237 -6 c 128,-1,83
 219 -4 219 -4 196 -3 c 128,-1,84
 173 -2 173 -2 152 -2 c 0,85,86
 79 -2 79 -2 39 -14 c 1,87,-1
 33 -14 l 2,88,89
 20 -14 20 -14 20 0 c 0,0,1
EndSplineSet
EndChar

StartChar: N
Encoding: 78 78 32
Width: 1150
GlyphClass: 2
Flags: W
LayerCount: 2
Fore
SplineSet
20 0 m 0,0,1
 20 25 20 25 68 57 c 0,2,3
 100 79 100 79 100 197 c 2,4,-1
 100 1159 l 2,5,6
 100 1276 100 1276 68 1298 c 0,7,8
 20 1330 20 1330 20 1356 c 0,9,10
 20 1374 20 1374 41 1374 c 2,11,-1
 50 1373 l 2,12,13
 58 1372 58 1372 72 1370 c 128,-1,14
 86 1368 86 1368 104 1366 c 128,-1,15
 122 1364 122 1364 146 1363 c 128,-1,16
 170 1362 170 1362 193 1362 c 0,17,18
 280 1362 280 1362 332 1376 c 0,19,20
 340 1376 340 1376 344 1368 c 2,21,-1
 913 573 l 2,22,23
 916 567 916 567 924 567 c 0,24,25
 938 567 938 567 938 582 c 2,26,-1
 938 1159 l 2,27,28
 938 1275 938 1275 905 1298 c 0,29,30
 856 1330 856 1330 856 1356 c 0,31,32
 856 1374 856 1374 877 1374 c 0,33,34
 878 1374 878 1374 897 1372 c 128,-1,35
 916 1370 916 1370 948.5 1368 c 128,-1,36
 981 1366 981 1366 1014 1366 c 0,37,38
 1075 1366 1075 1366 1130 1374 c 1,39,-1
 1137 1374 l 2,40,41
 1151 1374 1151 1374 1151 1358 c 0,42,43
 1151 1329 1151 1329 1104 1298 c 0,44,45
 1073 1281 1073 1281 1069 1196 c 1,46,-1
 1069 10 l 2,47,48
 1069 1 1069 1 1062.5 -7.5 c 128,-1,49
 1056 -16 1056 -16 1047 -16 c 2,50,-1
 1042 -16 l 2,51,52
 1041 -16 1041 -16 1025 -13 c 128,-1,53
 1009 -10 1009 -10 1001 -10 c 0,54,55
 988 -10 988 -10 967 -16 c 2,56,-1
 958 -18 l 1,57,58
 938 -18 938 -18 922 6 c 2,59,-1
 270 926 l 2,60,61
 264 932 264 932 258 932 c 0,62,63
 246 932 246 932 246 918 c 2,64,-1
 246 162 l 1,65,66
 250 76 250 76 279 57 c 0,67,68
 326 26 326 26 326 -4 c 0,69,70
 326 -18 326 -18 311 -18 c 2,71,-1
 305 -18 l 1,72,73
 263 -6 263 -6 193 -6 c 0,74,75
 159 -6 159 -6 123 -9 c 128,-1,76
 87 -12 87 -12 64.5 -15 c 128,-1,77
 42 -18 42 -18 41 -18 c 0,78,79
 20 -18 20 -18 20 0 c 0,0,1
EndSplineSet
EndChar

StartChar: O
Encoding: 79 79 33
Width: 1284
GlyphClass: 2
Flags: W
LayerCount: 2
Fore
SplineSet
20 678 m 0,0,1
 20 870 20 870 101 1035 c 128,-1,2
 182 1200 182 1200 328.5 1300.5 c 128,-1,3
 475 1401 475 1401 653 1401 c 0,4,5
 829 1401 829 1401 975.5 1300.5 c 128,-1,6
 1122 1200 1122 1200 1203 1034.5 c 128,-1,7
 1284 869 1284 869 1284 678 c 0,8,9
 1284 427 1284 427 1149.5 228.5 c 128,-1,10
 1015 30 1015 30 801 -27 c 1,11,12
 867 11 867 11 902.5 76 c 128,-1,13
 938 141 938 141 938 211 c 0,14,15
 938 268 938 268 918 309 c 1,16,17
 961 471 961 471 961 678 c 0,18,19
 961 767 961 767 953 852 c 128,-1,20
 945 937 945 937 923 1027 c 128,-1,21
 901 1117 901 1117 868 1184 c 128,-1,22
 835 1251 835 1251 779.5 1294 c 128,-1,23
 724 1337 724 1337 653 1337 c 0,24,25
 569 1337 569 1337 506 1274 c 128,-1,26
 443 1211 443 1211 409.5 1108.5 c 128,-1,27
 376 1006 376 1006 360 898 c 128,-1,28
 344 790 344 790 344 678 c 0,29,30
 344 597 344 597 353 513 c 128,-1,31
 362 429 362 429 385 338.5 c 128,-1,32
 408 248 408 248 442 178 c 128,-1,33
 476 108 476 108 532 63 c 128,-1,34
 588 18 588 18 657 18 c 2,35,-1
 664 18 l 2,36,37
 715 19 715 19 741.5 47.5 c 128,-1,38
 768 76 768 76 768 115 c 0,39,40
 768 152 768 152 743 179.5 c 128,-1,41
 718 207 718 207 676 207 c 0,42,43
 635 207 635 207 596 181 c 128,-1,44
 557 155 557 155 553 137 c 1,45,46
 498 177 498 177 498 248 c 0,47,48
 498 316 498 316 551 367 c 128,-1,49
 604 418 604 418 700 418 c 0,50,51
 776 418 776 418 844.5 361.5 c 128,-1,52
 913 305 913 305 913 217 c 0,53,54
 913 101 913 101 833.5 27 c 128,-1,55
 754 -47 754 -47 653 -47 c 0,56,57
 474 -47 474 -47 327 55 c 128,-1,58
 180 157 180 157 100 322.5 c 128,-1,59
 20 488 20 488 20 678 c 0,0,1
EndSplineSet
EndChar

StartChar: P
Encoding: 80 80 34
Width: 1032
GlyphClass: 2
Flags: W
LayerCount: 2
Fore
SplineSet
20 -4 m 0,0,1
 20 23 20 23 68 55 c 1,2,-1
 69 55 l 1,3,4
 85 67 85 67 90 88 c 0,5,6
 102 134 102 134 103 481 c 0,7,8
 103 561 103 561 104 772 c 0,9,10
 104 961 104 961 104 1075 c 2,11,-1
 104 1159 l 2,12,13
 104 1270 104 1270 72 1292 c 0,14,15
 25 1323 25 1323 25 1352 c 0,16,17
 25 1372 25 1372 45 1372 c 2,18,-1
 53 1372 l 2,19,20
 70 1372 70 1372 146 1377 c 128,-1,21
 222 1382 222 1382 276 1384 c 1,22,23
 219 1352 219 1352 188 1309 c 0,24,25
 131 1231 131 1231 131 1135 c 0,26,27
 131 1057 131 1057 161 1000 c 128,-1,28
 191 943 191 943 233 915 c 128,-1,29
 275 887 275 887 326 877 c 0,30,31
 361 872 361 872 369 872 c 2,32,-1
 385 872 l 1,33,-1
 385 625 l 1,34,35
 438 604 438 604 479 604 c 0,36,37
 534 604 534 604 577 635 c 128,-1,38
 620 666 620 666 645 718 c 128,-1,39
 670 770 670 770 684 821 c 128,-1,40
 698 872 698 872 705 928 c 0,41,42
 715 1010 715 1010 715 1061 c 0,43,44
 715 1203 715 1203 669.5 1277.5 c 128,-1,45
 624 1352 624 1352 561 1352 c 0,46,47
 507 1352 507 1352 468.5 1297 c 128,-1,48
 430 1242 430 1242 430 1149 c 0,49,50
 430 1108 430 1108 453 1067 c 128,-1,51
 476 1026 476 1026 499 1006 c 2,52,-1
 522 985 l 1,53,54
 507 947 507 947 466 925 c 128,-1,55
 425 903 425 903 375 903 c 0,56,57
 291 903 291 903 226.5 962.5 c 128,-1,58
 162 1022 162 1022 162 1135 c 0,59,60
 162 1164 162 1164 169.5 1195 c 128,-1,61
 177 1226 177 1226 201 1264.5 c 128,-1,62
 225 1303 225 1303 262.5 1332.5 c 128,-1,63
 300 1362 300 1362 367.5 1382.5 c 128,-1,64
 435 1403 435 1403 522 1403 c 0,65,66
 625 1403 625 1403 717 1374.5 c 128,-1,67
 809 1346 809 1346 879.5 1293.5 c 128,-1,68
 950 1241 950 1241 991 1159.5 c 128,-1,69
 1032 1078 1032 1078 1032 979 c 0,70,71
 1032 878 1032 878 1002 796 c 128,-1,72
 972 714 972 714 923.5 662 c 128,-1,73
 875 610 875 610 810 575.5 c 128,-1,74
 745 541 745 541 680.5 526.5 c 128,-1,75
 616 512 616 512 549 512 c 0,76,77
 454 512 454 512 385 541 c 1,78,-1
 385 418 l 2,79,80
 385 183 385 183 390 127.5 c 128,-1,81
 395 72 395 72 418 55 c 0,82,83
 465 24 465 24 465 -4 c 0,84,85
 465 -20 465 -20 451 -20 c 2,86,-1
 446 -20 l 1,87,88
 380 -10 380 -10 233 -10 c 0,89,90
 92 -10 92 -10 41 -20 c 1,91,-1
 37 -20 l 2,92,93
 20 -20 20 -20 20 -4 c 0,0,1
EndSplineSet
EndChar

StartChar: Q
Encoding: 81 81 35
Width: 1284
GlyphClass: 2
Flags: W
LayerCount: 2
Fore
SplineSet
20 678 m 0,0,1
 20 923 20 923 154 1122 c 0,2,3
 286 1315 286 1315 504 1380 c 1,4,5
 437 1342 437 1342 401 1274 c 0,6,7
 367 1210 367 1210 367 1143 c 0,8,9
 367 1088 367 1088 387 1044 c 1,10,11
 344 853 344 853 344 678 c 0,12,13
 344 567 344 567 358 461 c 0,14,15
 369 353 369 353 406 244 c 0,16,17
 439 148 439 148 500 80 c 0,18,19
 545 31 545 31 604 20 c 0,20,21
 611 20 611 20 631 16 c 1,22,-1
 651 16 l 2,23,24
 741 16 741 16 799 80 c 0,25,26
 859 146 859 146 895 244 c 0,27,28
 932 354 932 354 946 459 c 0,29,30
 961 573 961 573 961 678 c 0,31,32
 961 771 961 771 946 885 c 0,33,34
 932 990 932 990 895 1100 c 0,35,36
 857 1203 857 1203 799 1270 c 1,37,38
 737 1335 737 1335 647 1335 c 2,39,-1
 641 1335 l 2,40,41
 587 1332 587 1332 563 1305 c 0,42,43
 537 1279 537 1279 537 1241 c 128,-1,44
 537 1203 537 1203 561 1176 c 0,45,46
 587 1147 587 1147 631 1147 c 0,47,48
 663 1147 663 1147 688 1161 c 0,49,50
 710 1171 710 1171 733 1190 c 0,51,52
 748 1205 748 1205 752 1217 c 1,53,54
 807 1171 807 1171 807 1106 c 0,55,56
 807 1043 807 1043 758 991 c 0,57,58
 706 936 706 936 604 936 c 0,59,60
 534 936 534 936 463 989 c 0,61,62
 391 1043 391 1043 391 1137 c 0,63,64
 391 1259 391 1259 475 1331 c 0,65,66
 557 1401 557 1401 651 1401 c 0,67,68
 836 1401 836 1401 979 1300 c 0,69,70
 1120 1200 1120 1200 1204 1034 c 1,71,72
 1284 866 1284 866 1284 678 c 0,73,74
 1284 484 1284 484 1202 319 c 0,75,76
 1121 155 1121 155 977 53 c 0,77,78
 886 -12 886 -12 768 -37 c 1,79,80
 839 -70 839 -70 889 -86 c 0,81,82
 960 -113 960 -113 1024 -113 c 0,83,84
 1077 -113 1077 -113 1133 -84 c 1,85,86
 1139 -111 1139 -111 1139 -133 c 0,87,88
 1139 -214 1139 -214 1087 -260 c 0,89,90
 1034 -307 1034 -307 956 -307 c 0,91,92
 872 -307 872 -307 766 -242 c 0,93,94
 759 -237 759 -237 743.5 -226.5 c 128,-1,95
 728 -216 728 -216 721 -211 c 0,96,97
 635 -147 635 -147 569 -109 c 0,98,99
 501 -70 501 -70 432 -70 c 0,100,101
 386 -70 386 -70 342 -90 c 1,102,103
 380 -33 380 -33 438 -8 c 1,104,105
 380 16 380 16 328 53 c 0,106,107
 183 156 183 156 102 319 c 0,108,109
 20 484 20 484 20 678 c 0,0,1
EndSplineSet
EndChar

StartChar: R
Encoding: 82 82 36
Width: 1173
GlyphClass: 2
Flags: W
LayerCount: 2
Fore
SplineSet
20 -4 m 0,0,1
 20 23 20 23 68 55 c 0,2,3
 102 77 102 77 102 199 c 2,4,-1
 104 1075 l 1,5,-1
 106 1159 l 2,6,7
 106 1269 106 1269 72 1292 c 0,8,9
 25 1323 25 1323 25 1352 c 0,10,11
 25 1372 25 1372 45 1372 c 2,12,-1
 53 1372 l 2,13,14
 71 1372 71 1372 146.5 1377 c 128,-1,15
 222 1382 222 1382 276 1384 c 1,16,17
 219 1352 219 1352 188 1309 c 0,18,19
 131 1231 131 1231 131 1135 c 0,20,21
 131 1021 131 1021 188.5 956.5 c 128,-1,22
 246 892 246 892 328 877 c 0,23,24
 363 872 363 872 371 872 c 2,25,-1
 385 872 l 1,26,-1
 385 596 l 1,27,-1
 428 592 l 1,28,29
 489 592 489 592 538.5 620.5 c 128,-1,30
 588 649 588 649 621 697.5 c 128,-1,31
 654 746 654 746 675 804 c 128,-1,32
 696 862 696 862 705 928 c 0,33,34
 715 1010 715 1010 715 1061 c 0,35,36
 715 1203 715 1203 669.5 1277.5 c 128,-1,37
 624 1352 624 1352 561 1352 c 0,38,39
 507 1352 507 1352 468.5 1297 c 128,-1,40
 430 1242 430 1242 430 1149 c 0,41,42
 430 1108 430 1108 453 1067 c 128,-1,43
 476 1026 476 1026 499 1006 c 2,44,-1
 522 985 l 1,45,46
 507 947 507 947 466 925 c 128,-1,47
 425 903 425 903 375 903 c 0,48,49
 291 903 291 903 226.5 962.5 c 128,-1,50
 162 1022 162 1022 162 1135 c 0,51,52
 162 1164 162 1164 169.5 1195 c 128,-1,53
 177 1226 177 1226 201 1264.5 c 128,-1,54
 225 1303 225 1303 262.5 1332.5 c 128,-1,55
 300 1362 300 1362 367.5 1382.5 c 128,-1,56
 435 1403 435 1403 522 1403 c 0,57,58
 625 1403 625 1403 717 1374.5 c 128,-1,59
 809 1346 809 1346 879.5 1293.5 c 128,-1,60
 950 1241 950 1241 991 1159.5 c 128,-1,61
 1032 1078 1032 1078 1032 979 c 0,62,63
 1032 827 1032 827 969.5 726 c 128,-1,64
 907 625 907 625 803 571 c 1,65,66
 1039 52 1039 52 1143 33 c 0,67,68
 1174 27 1174 27 1174 6 c 0,69,70
 1174 -4 1174 -4 1163 -11 c 128,-1,71
 1152 -18 1152 -18 1133 -18 c 0,72,73
 1074 -8 1074 -8 922 -8 c 0,74,75
 744 -8 744 -8 672 -18 c 1,76,77
 635 -18 635 -18 635 0 c 0,78,79
 635 9 635 9 647.5 21 c 128,-1,80
 660 33 660 33 678 39 c 0,81,82
 713 49 713 49 713 92 c 0,83,84
 713 113 713 113 707 125 c 0,85,86
 639 262 639 262 508 514 c 1,87,-1
 457 510 l 1,88,-1
 426 512 l 2,89,90
 409 512 409 512 397 501 c 128,-1,91
 385 490 385 490 385 473 c 2,92,-1
 385 160 l 1,93,94
 389 75 389 75 420 55 c 0,95,96
 467 24 467 24 467 -4 c 0,97,98
 467 -20 467 -20 451 -20 c 2,99,-1
 446 -20 l 1,100,101
 380 -10 380 -10 233 -10 c 0,102,103
 92 -10 92 -10 41 -20 c 1,104,-1
 37 -20 l 2,105,106
 20 -20 20 -20 20 -4 c 0,0,1
EndSplineSet
EndChar

StartChar: S
Encoding: 83 83 37
Width: 1081
GlyphClass: 2
Flags: W
LayerCount: 2
Fore
SplineSet
20 332 m 0,0,1
 20 410 20 410 48.5 480 c 128,-1,2
 77 550 77 550 130.5 605.5 c 128,-1,3
 184 661 184 661 270.5 694 c 128,-1,4
 357 727 357 727 465 727 c 0,5,6
 556 727 556 727 627 702.5 c 128,-1,7
 698 678 698 678 740 637 c 128,-1,8
 782 596 782 596 803.5 548 c 128,-1,9
 825 500 825 500 825 449 c 0,10,11
 825 365 825 365 771.5 305.5 c 128,-1,12
 718 246 718 246 627 246 c 0,13,14
 584 246 584 246 541 260 c 1,15,16
 557 292 557 292 557 334 c 0,17,18
 557 397 557 397 522 444.5 c 128,-1,19
 487 492 487 492 422 492 c 0,20,21
 351 492 351 492 304.5 429 c 128,-1,22
 258 366 258 366 258 281 c 0,23,24
 258 190 258 190 319.5 121 c 128,-1,25
 381 52 381 52 504 39 c 1,26,-1
 549 37 l 1,27,28
 657 37 657 37 729 76 c 128,-1,29
 801 115 801 115 801 188 c 0,30,31
 801 219 801 219 778 270 c 1,32,-1
 797 289 l 1,33,34
 854 355 854 355 854 453 c 0,35,36
 854 510 854 510 829 565 c 0,37,38
 788 656 788 656 691 707 c 128,-1,39
 594 758 594 758 465 758 c 0,40,41
 318 758 318 758 197 696 c 1,42,43
 59 825 59 825 59 985 c 1,44,-1
 61 1016 l 2,45,46
 74 1188 74 1188 209 1290.5 c 128,-1,47
 344 1393 344 1393 547 1393 c 0,48,49
 989 1393 989 1393 1016 1020 c 1,50,-1
 1016 1012 l 2,51,52
 1016 988 1016 988 1008.5 963.5 c 128,-1,53
 1001 939 1001 939 984.5 914 c 128,-1,54
 968 889 968 889 936 873.5 c 128,-1,55
 904 858 904 858 862 858 c 0,56,57
 707 858 707 858 707 995 c 0,58,59
 707 1044 707 1044 727 1106 c 0,60,61
 737 1144 737 1144 737 1171 c 0,62,63
 737 1249 737 1249 679.5 1294 c 128,-1,64
 622 1339 622 1339 547 1339 c 0,65,66
 458 1339 458 1339 402 1273 c 128,-1,67
 346 1207 346 1207 346 1116 c 0,68,69
 346 1044 346 1044 386 980.5 c 128,-1,70
 426 917 426 917 508 879 c 0,71,72
 534 867 534 867 584 844.5 c 128,-1,73
 634 822 634 822 664 808.5 c 128,-1,74
 694 795 694 795 741 772 c 128,-1,75
 788 749 788 749 818 731.5 c 128,-1,76
 848 714 848 714 887.5 688 c 128,-1,77
 927 662 927 662 952 638.5 c 128,-1,78
 977 615 977 615 1004 583.5 c 128,-1,79
 1031 552 1031 552 1046 520 c 128,-1,80
 1061 488 1061 488 1071 449.5 c 128,-1,81
 1081 411 1081 411 1081 369 c 2,82,-1
 1079 340 l 2,83,84
 1072 248 1072 248 1022 173.5 c 128,-1,85
 972 99 972 99 895.5 53 c 128,-1,86
 819 7 819 7 727.5 -17 c 128,-1,87
 636 -41 636 -41 539 -41 c 0,88,89
 412 -41 412 -41 309.5 -7 c 128,-1,90
 207 27 207 27 146 82 c 128,-1,91
 85 137 85 137 52.5 201.5 c 128,-1,92
 20 266 20 266 20 332 c 0,0,1
EndSplineSet
EndChar

StartChar: T
Encoding: 84 84 38
Width: 1417
GlyphClass: 2
Flags: W
LayerCount: 2
Fore
SplineSet
20 1143 m 0,0,1
 20 1210 20 1210 52 1260 c 128,-1,2
 84 1310 84 1310 140 1338 c 128,-1,3
 196 1366 196 1366 263.5 1379.5 c 128,-1,4
 331 1393 331 1393 410 1393 c 0,5,6
 491 1393 491 1393 588 1376 c 0,7,8
 700 1356 700 1356 891 1356 c 0,9,10
 984 1356 984 1356 1084.5 1361 c 128,-1,11
 1185 1366 1185 1366 1240 1371 c 2,12,-1
 1294 1376 l 2,13,14
 1331 1376 1331 1376 1374 1307 c 128,-1,15
 1417 1238 1417 1238 1417 1190 c 0,16,17
 1417 1162 1417 1162 1401 1157 c 1,18,-1
 1399 1157 l 2,19,20
 1392 1157 1392 1157 1381.5 1172 c 128,-1,21
 1371 1187 1371 1187 1357 1209 c 128,-1,22
 1343 1231 1343 1231 1324.5 1253 c 128,-1,23
 1306 1275 1306 1275 1275.5 1290 c 128,-1,24
 1245 1305 1245 1305 1208 1305 c 2,25,-1
 907 1303 l 1,26,-1
 909 162 l 2,27,28
 913 76 913 76 942 57 c 0,29,30
 989 26 989 26 989 -2 c 0,31,32
 989 -18 989 -18 975 -18 c 2,33,-1
 971 -18 l 1,34,35
 908 0 908 0 801 0 c 0,36,37
 698 0 698 0 563 -18 c 1,38,-1
 561 -18 l 2,39,40
 545 -18 545 -18 545 -2 c 0,41,42
 545 26 545 26 592 57 c 0,43,44
 625 80 625 80 625 199 c 2,45,-1
 623 963 l 1,46,47
 656 1000 656 1000 668 1032 c 0,48,49
 676 1053 676 1053 676 1083 c 0,50,51
 676 1152 676 1152 621 1204 c 1,52,-1
 621 1210 l 1,53,54
 617 1241 617 1241 612 1264 c 0,55,56
 601 1319 601 1319 557 1327 c 0,57,58
 457 1346 457 1346 393 1346 c 0,59,60
 292 1346 292 1346 238 1314 c 128,-1,61
 184 1282 184 1282 184 1237 c 0,62,63
 184 1230 184 1230 188 1214 c 0,64,65
 201 1175 201 1175 252 1147.5 c 128,-1,66
 303 1120 303 1120 381 1120 c 0,67,68
 425 1120 425 1120 502 1137 c 0,69,70
 544 1148 544 1148 568 1166 c 128,-1,71
 592 1184 592 1184 594 1200 c 1,72,-1
 621 1176 l 1,73,74
 655 1139 655 1139 655 1094 c 0,75,76
 655 1048 655 1048 621 1008 c 0,77,78
 539 905 539 905 373 905 c 0,79,80
 238 905 238 905 129 974 c 128,-1,81
 20 1043 20 1043 20 1143 c 0,0,1
EndSplineSet
EndChar

StartChar: U
Encoding: 85 85 39
Width: 1167
GlyphClass: 2
Flags: W
LayerCount: 2
Fore
SplineSet
20 1354 m 0,0,1
 20 1372 20 1372 41 1372 c 0,2,3
 145 1360 145 1360 274 1360 c 0,4,5
 377 1360 377 1360 479 1372 c 1,6,-1
 483 1372 l 2,7,8
 500 1372 500 1372 500 1356 c 0,9,10
 500 1327 500 1327 453 1296 c 0,11,12
 420 1273 420 1273 420 1157 c 2,13,-1
 422 684 l 2,14,15
 422 601 422 601 424 542 c 128,-1,16
 426 483 426 483 431.5 409.5 c 128,-1,17
 437 336 437 336 447.5 285 c 128,-1,18
 458 234 458 234 477 182 c 128,-1,19
 496 130 496 130 522.5 98.5 c 128,-1,20
 549 67 549 67 588.5 47 c 128,-1,21
 628 27 628 27 678 27 c 0,22,23
 744 27 744 27 799 53.5 c 128,-1,24
 854 80 854 80 891 124 c 128,-1,25
 928 168 928 168 954 224.5 c 128,-1,26
 980 281 980 281 992 340 c 128,-1,27
 1004 399 1004 399 1004 457 c 2,28,-1
 1004 1153 l 2,29,30
 1004 1273 1004 1273 969 1296 c 0,31,32
 922 1327 922 1327 922 1354 c 0,33,34
 922 1372 922 1372 942 1372 c 0,35,36
 943 1372 943 1372 961.5 1370.5 c 128,-1,37
 980 1369 980 1369 1008.5 1367.5 c 128,-1,38
 1037 1366 1037 1366 1063 1366 c 0,39,40
 1110 1366 1110 1366 1147 1372 c 1,41,-1
 1153 1372 l 2,42,43
 1167 1372 1167 1372 1167 1356 c 0,44,45
 1167 1327 1167 1327 1120 1296 c 0,46,47
 1091 1277 1091 1277 1087 1192 c 2,48,-1
 1085 457 l 1,49,-1
 1087 457 l 1,50,51
 1087 359 1087 359 1063 272.5 c 128,-1,52
 1039 186 1039 186 991 115.5 c 128,-1,53
 943 45 943 45 862.5 4 c 128,-1,54
 782 -37 782 -37 678 -37 c 0,55,56
 543 -37 543 -37 441.5 -8.5 c 128,-1,57
 340 20 340 20 261 86 c 128,-1,58
 182 152 182 152 141 269.5 c 128,-1,59
 100 387 100 387 100 555 c 2,60,-1
 100 1192 l 1,61,62
 96 1278 96 1278 68 1296 c 0,63,64
 20 1328 20 1328 20 1354 c 0,0,1
EndSplineSet
EndChar

StartChar: V
Encoding: 86 86 40
Width: 1339
GlyphClass: 2
Flags: W
LayerCount: 2
Fore
SplineSet
20 1339 m 0,0,1
 20 1367 20 1367 72 1372 c 1,2,-1
 72 1374 l 1,3,-1
 412 1374 l 2,4,5
 483 1374 483 1374 483 1343 c 2,6,-1
 483 1341 l 2,7,8
 483 1333 483 1333 476 1327.5 c 128,-1,9
 469 1322 469 1322 461 1319 c 128,-1,10
 453 1316 453 1316 446 1307.5 c 128,-1,11
 439 1299 439 1299 438 1286 c 1,12,13
 541 944 541 944 780 211 c 1,14,15
 845 399 845 399 955.5 738 c 128,-1,16
 1066 1077 1066 1077 1139 1284 c 1,17,-1
 1139 1286 l 2,18,19
 1139 1300 1139 1300 1131.5 1308.5 c 128,-1,20
 1124 1317 1124 1317 1114.5 1320 c 128,-1,21
 1105 1323 1105 1323 1097.5 1328.5 c 128,-1,22
 1090 1334 1090 1334 1090 1343 c 2,23,-1
 1090 1346 l 2,24,25
 1090 1374 1090 1374 1143 1374 c 1,26,-1
 1169 1372 l 2,27,28
 1175 1370 1175 1370 1200 1370 c 0,29,30
 1242 1370 1242 1370 1282 1374 c 1,31,-1
 1296 1374 l 2,32,33
 1336 1374 1336 1374 1339 1341 c 0,34,35
 1339 1330 1339 1330 1328.5 1322.5 c 128,-1,36
 1318 1315 1318 1315 1304 1310 c 128,-1,37
 1290 1305 1290 1305 1272.5 1291 c 128,-1,38
 1255 1277 1255 1277 1243 1257 c 1,39,-1
 836 4 l 2,40,41
 833 -5 833 -5 824.5 -11.5 c 128,-1,42
 816 -18 816 -18 807 -18 c 1,43,44
 807 -17 807 -17 793.5 -14 c 128,-1,45
 780 -11 780 -11 754.5 -8.5 c 128,-1,46
 729 -6 729 -6 702 -6 c 0,47,48
 642 -6 642 -6 598 -18 c 1,49,-1
 594 -18 l 2,50,51
 576 -18 576 -18 569 4 c 0,52,53
 118 1245 118 1245 113 1264 c 1,54,55
 98 1286 98 1286 74 1298.5 c 128,-1,56
 50 1311 50 1311 35 1318.5 c 128,-1,57
 20 1326 20 1326 20 1339 c 0,0,1
EndSplineSet
EndChar

StartChar: W
Encoding: 87 87 41
Width: 1880
GlyphClass: 2
Flags: W
LayerCount: 2
Fore
SplineSet
20 1339 m 2,0,-1
 20 1341 l 2,1,2
 20 1371 20 1371 72 1376 c 1,3,-1
 72 1378 l 1,4,-1
 395 1376 l 2,5,6
 467 1376 467 1376 467 1348 c 2,7,-1
 467 1346 l 2,8,9
 467 1335 467 1335 456 1329 c 128,-1,10
 445 1323 445 1323 434 1315 c 128,-1,11
 423 1307 423 1307 422 1290 c 1,12,-1
 440 1225 l 1,13,14
 428 1188 428 1188 428 1149 c 0,15,16
 428 1090 428 1090 453 1035 c 128,-1,17
 478 980 478 980 524 946 c 1,18,19
 702 390 702 390 756 215 c 1,20,21
 775 278 775 278 798 363.5 c 128,-1,22
 821 449 821 449 855 580.5 c 128,-1,23
 889 712 889 712 903 764 c 1,24,25
 894 800 894 800 877.5 869.5 c 128,-1,26
 861 939 861 939 842 1016 c 1,27,28
 872 1068 872 1068 872 1137 c 0,29,30
 872 1213 872 1213 835.5 1270 c 128,-1,31
 799 1327 799 1327 735 1327 c 1,32,-1
 707 1323 l 2,33,34
 668 1315 668 1315 646.5 1284.5 c 128,-1,35
 625 1254 625 1254 625 1219 c 0,36,37
 625 1186 625 1186 642.5 1164.5 c 128,-1,38
 660 1143 660 1143 692 1143 c 0,39,40
 727 1143 727 1143 767.5 1176.5 c 128,-1,41
 808 1210 808 1210 817 1237 c 1,42,43
 850 1195 850 1195 850 1139 c 0,44,45
 850 1060 850 1060 790 996 c 128,-1,46
 730 932 730 932 643 932 c 0,47,48
 570 932 570 932 515 987 c 128,-1,49
 460 1042 460 1042 453 1133 c 1,50,-1
 453 1149 l 2,51,52
 453 1254 453 1254 540 1320 c 128,-1,53
 627 1386 627 1386 750 1386 c 0,54,55
 795 1386 795 1386 831 1378 c 0,56,57
 872 1370 872 1370 932 1370 c 0,58,59
 963 1370 963 1370 996.5 1372 c 128,-1,60
 1030 1374 1030 1374 1051.5 1376 c 128,-1,61
 1073 1378 1073 1378 1075 1378 c 2,62,-1
 1077 1378 l 1,63,64
 1145 1373 1145 1373 1145 1350 c 2,65,-1
 1145 1346 l 2,66,67
 1143 1335 1143 1335 1119.5 1323 c 128,-1,68
 1096 1311 1096 1311 1092 1290 c 1,69,70
 1145 1009 1145 1009 1168.5 897.5 c 128,-1,71
 1192 786 1192 786 1226.5 632 c 128,-1,72
 1261 478 1261 478 1315 215 c 1,73,74
 1383 405 1383 405 1493 743 c 128,-1,75
 1603 1081 1603 1081 1679 1286 c 1,76,77
 1679 1301 1679 1301 1671.5 1310 c 128,-1,78
 1664 1319 1664 1319 1654.5 1322.5 c 128,-1,79
 1645 1326 1645 1326 1637.5 1332 c 128,-1,80
 1630 1338 1630 1338 1630 1346 c 0,81,82
 1630 1378 1630 1378 1718 1378 c 2,83,-1
 1825 1378 l 1,84,-1
 1825 1376 l 1,85,86
 1880 1376 1880 1376 1880 1343 c 0,87,88
 1880 1330 1880 1330 1864 1322.5 c 128,-1,89
 1848 1315 1848 1315 1823.5 1301 c 128,-1,90
 1799 1287 1799 1287 1784 1262 c 1,91,-1
 1364 6 l 2,92,93
 1357 -14 1357 -14 1337 -14 c 0,94,95
 1288 -4 1288 -4 1229 -4 c 0,96,97
 1175 -4 1175 -4 1139 -14 c 1,98,-1
 1135 -14 l 2,99,100
 1120 -14 1120 -14 1116 2 c 0,101,102
 1077 116 1077 116 958 561 c 1,103,-1
 805 4 l 2,104,105
 802 -14 802 -14 782 -14 c 1,106,107
 735 -4 735 -4 676 -4 c 0,108,109
 621 -4 621 -4 582 -14 c 1,110,-1
 578 -14 l 2,111,112
 565 -14 565 -14 559 -2 c 0,113,114
 532 74 532 74 414.5 406 c 128,-1,115
 297 738 297 738 205 998.5 c 128,-1,116
 113 1259 113 1259 111 1266 c 0,117,118
 97 1289 97 1289 73.5 1301.5 c 128,-1,119
 50 1314 50 1314 35 1320.5 c 128,-1,120
 20 1327 20 1327 20 1339 c 2,0,-1
EndSplineSet
EndChar

StartChar: X
Encoding: 88 88 42
Width: 1288
GlyphClass: 2
Flags: W
LayerCount: 2
Fore
SplineSet
20 2 m 0,0,1
 20 12 20 12 28.5 20 c 128,-1,2
 37 28 37 28 51 31 c 0,3,4
 91 40 91 40 150 115 c 1,5,-1
 496 684 l 1,6,7
 343 936 343 936 217 1155 c 1,8,9
 114 1312 114 1312 57 1323 c 0,10,11
 27 1329 27 1329 27 1350 c 0,12,13
 27 1360 27 1360 38.5 1367 c 128,-1,14
 50 1374 50 1374 70 1374 c 1,15,16
 148 1356 148 1356 258 1356 c 0,17,18
 330 1356 330 1356 424.5 1365 c 128,-1,19
 519 1374 519 1374 528 1374 c 0,20,21
 567 1374 567 1374 567 1356 c 0,22,23
 567 1347 567 1347 554 1335 c 128,-1,24
 541 1323 541 1323 524 1317 c 0,25,26
 487 1306 487 1306 487 1262 c 0,27,28
 487 1245 487 1245 494 1231 c 2,29,-1
 707 844 l 1,30,31
 859 1094 859 1094 926 1231 c 0,32,33
 934 1247 934 1247 934 1264 c 0,34,35
 934 1306 934 1306 897 1317 c 0,36,37
 880 1323 880 1323 868 1337 c 128,-1,38
 856 1351 856 1351 856 1362 c 0,39,40
 856 1376 856 1376 874 1376 c 2,41,-1
 893 1374 l 1,42,43
 948 1362 948 1362 1010 1362 c 0,44,45
 1045 1362 1045 1362 1081 1365 c 128,-1,46
 1117 1368 1117 1368 1136 1371 c 2,47,-1
 1155 1374 l 2,48,49
 1176 1374 1176 1374 1187 1367 c 128,-1,50
 1198 1360 1198 1360 1198 1350 c 0,51,52
 1198 1329 1198 1329 1167 1323 c 0,53,54
 1124 1316 1124 1316 1042 1206 c 1,55,-1
 772 758 l 1,56,57
 917 510 917 510 945 460.5 c 128,-1,58
 973 411 973 411 1079 229 c 1,59,60
 1198 41 1198 41 1257 31 c 0,61,62
 1288 25 1288 25 1288 6 c 0,63,64
 1288 -4 1288 -4 1277 -11 c 128,-1,65
 1266 -18 1266 -18 1245 -18 c 0,66,67
 1124 0 1124 0 989 0 c 0,68,69
 867 0 867 0 786 -18 c 1,70,-1
 768 -20 l 2,71,72
 750 -20 750 -20 750 -6 c 0,73,74
 750 5 750 5 762.5 19 c 128,-1,75
 775 33 775 33 791 37 c 0,76,77
 827 48 827 48 827 92 c 0,78,79
 827 111 827 111 821 123 c 0,80,81
 803 158 803 158 789 185 c 128,-1,82
 775 212 775 212 750.5 255.5 c 128,-1,83
 726 299 726 299 709.5 327.5 c 128,-1,84
 693 356 693 356 644 441 c 128,-1,85
 595 526 595 526 559 588 c 1,86,87
 540 555 540 555 493 476.5 c 128,-1,88
 446 398 446 398 419.5 353 c 128,-1,89
 393 308 393 308 357 242 c 128,-1,90
 321 176 321 176 295 123 c 0,91,92
 287 107 287 107 287 92 c 0,93,94
 287 48 287 48 324 37 c 0,95,96
 341 33 341 33 354 21 c 128,-1,97
 367 9 367 9 367 0 c 0,98,99
 367 -18 367 -18 328 -18 c 1,100,101
 277 -6 277 -6 197 -6 c 0,102,103
 120 -6 120 -6 61 -18 c 2,104,-1
 49 -20 l 2,105,106
 36 -20 36 -20 28 -13.5 c 128,-1,107
 20 -7 20 -7 20 2 c 0,0,1
EndSplineSet
EndChar

StartChar: Y
Encoding: 89 89 43
Width: 1312
GlyphClass: 2
Flags: W
LayerCount: 2
Fore
SplineSet
20 1348 m 0,0,1
 20 1358 20 1358 27.5 1365 c 128,-1,2
 35 1372 35 1372 49 1372 c 2,3,-1
 61 1370 l 2,4,5
 135 1356 135 1356 252 1356 c 0,6,7
 313 1356 313 1356 380 1359.5 c 128,-1,8
 447 1363 447 1363 484 1366 c 2,9,-1
 520 1370 l 1,10,11
 559 1370 559 1370 559 1352 c 0,12,13
 559 1343 559 1343 546 1331 c 128,-1,14
 533 1319 533 1319 516 1313 c 0,15,16
 485 1304 485 1304 485 1282 c 0,17,18
 485 1267 485 1267 494 1242.5 c 128,-1,19
 503 1218 503 1218 527 1168.5 c 128,-1,20
 551 1119 551 1119 579 1065 c 128,-1,21
 607 1011 607 1011 660.5 905.5 c 128,-1,22
 714 800 714 800 766 696 c 1,23,24
 820 798 820 798 876 901 c 128,-1,25
 932 1004 932 1004 962.5 1058 c 128,-1,26
 993 1112 993 1112 1019 1161.5 c 128,-1,27
 1045 1211 1045 1211 1055 1236 c 128,-1,28
 1065 1261 1065 1261 1065 1276 c 0,29,30
 1065 1300 1065 1300 1028 1313 c 0,31,32
 1010 1319 1010 1319 997.5 1333 c 128,-1,33
 985 1347 985 1347 985 1358 c 0,34,35
 985 1372 985 1372 1006 1372 c 2,36,-1
 1022 1370 l 2,37,38
 1056 1364 1056 1364 1116 1364 c 2,39,-1
 1270 1370 l 2,40,41
 1290 1370 1290 1370 1301.5 1363 c 128,-1,42
 1313 1356 1313 1356 1313 1346 c 0,43,44
 1313 1325 1313 1325 1282 1319 c 0,45,46
 1248 1312 1248 1312 1199 1255 c 128,-1,47
 1150 1198 1150 1198 1092.5 1102 c 128,-1,48
 1035 1006 1035 1006 987 917.5 c 128,-1,49
 939 829 939 829 880 717 c 128,-1,50
 821 605 821 605 795 559 c 1,51,52
 795 394 795 394 796 321.5 c 128,-1,53
 797 249 797 249 797 154 c 1,54,55
 801 68 801 68 829 51 c 0,56,57
 877 19 877 19 877 -10 c 0,58,59
 877 -25 877 -25 864 -25 c 2,60,-1
 858 -25 l 1,61,62
 797 -10 797 -10 686 -10 c 0,63,64
 554 -10 554 -10 453 -25 c 1,65,-1
 449 -25 l 2,66,67
 432 -25 432 -25 432 -8 c 0,68,69
 432 20 432 20 479 51 c 0,70,71
 503 66 503 66 508 111.5 c 128,-1,72
 513 157 513 157 513 328 c 0,73,74
 513 463 513 463 514 555 c 1,75,76
 457 655 457 655 392.5 780.5 c 128,-1,77
 328 906 328 906 286 989.5 c 128,-1,78
 244 1073 244 1073 200 1151 c 128,-1,79
 156 1229 156 1229 119 1270.5 c 128,-1,80
 82 1312 82 1312 49 1319 c 0,81,82
 20 1325 20 1325 20 1348 c 0,0,1
EndSplineSet
EndChar

StartChar: Z
Encoding: 90 90 44
Width: 1157
GlyphClass: 2
Flags: W
LayerCount: 2
Fore
SplineSet
20 41 m 0,0,1
 20 56 20 56 31 74 c 2,2,-1
 518 887 l 1,3,-1
 539 891 l 2,4,5
 600 900 600 900 640.5 918.5 c 128,-1,6
 681 937 681 937 719 973 c 0,7,8
 788 1042 788 1042 788 1124 c 0,9,10
 788 1177 788 1177 761.5 1221 c 128,-1,11
 735 1265 735 1265 694 1284 c 0,12,13
 581 1339 581 1339 479 1339 c 0,14,15
 392 1339 392 1339 334 1304.5 c 128,-1,16
 276 1270 276 1270 276 1231 c 1,17,-1
 279 1217 l 1,18,19
 292 1177 292 1177 343 1149.5 c 128,-1,20
 394 1122 394 1122 471 1122 c 0,21,22
 517 1122 517 1122 590 1139 c 0,23,24
 631 1150 631 1150 656 1168.5 c 128,-1,25
 681 1187 681 1187 684 1202 c 1,26,27
 743 1157 743 1157 743 1096 c 0,28,29
 743 1034 743 1034 683 981 c 128,-1,30
 623 928 623 928 535 913 c 0,31,32
 500 907 500 907 463 907 c 0,33,34
 328 907 328 907 219.5 976 c 128,-1,35
 111 1045 111 1045 111 1145 c 0,36,37
 111 1212 111 1212 143 1262 c 128,-1,38
 175 1312 175 1312 231.5 1340 c 128,-1,39
 288 1368 288 1368 355 1381.5 c 128,-1,40
 422 1395 422 1395 500 1395 c 0,41,42
 581 1395 581 1395 678 1378 c 0,43,44
 698 1374 698 1374 766 1374 c 2,45,-1
 1112 1374 l 2,46,47
 1130 1374 1130 1374 1141.5 1361.5 c 128,-1,48
 1153 1349 1153 1349 1153 1331 c 0,49,50
 1153 1321 1153 1321 1147 1309 c 2,51,-1
 451 102 l 1,52,53
 459 102 459 102 625.5 98 c 128,-1,54
 792 94 792 94 946 94 c 0,55,56
 991 94 991 94 1027.5 111 c 128,-1,57
 1064 128 1064 128 1082 148.5 c 128,-1,58
 1100 169 1100 169 1115 186 c 128,-1,59
 1130 203 1130 203 1137 203 c 2,60,-1
 1141 203 l 1,61,62
 1157 198 1157 198 1157 172 c 0,63,64
 1157 128 1157 128 1114 59.5 c 128,-1,65
 1071 -9 1071 -9 1034 -16 c 0,66,67
 1016 -20 1016 -20 963 -20 c 0,68,69
 922 -20 922 -20 745 -11 c 128,-1,70
 568 -2 568 -2 436 -2 c 0,71,72
 252 -2 252 -2 80 -18 c 1,73,-1
 76 -18 l 2,74,75
 52 -18 52 -18 36 -0.5 c 128,-1,76
 20 17 20 17 20 41 c 0,0,1
EndSplineSet
EndChar

StartChar: bracketleft
Encoding: 91 91 45
Width: 290
GlyphClass: 2
Flags: W
LayerCount: 2
Fore
SplineSet
20 -199 m 1,0,-1
 20 1583 l 1,1,-1
 258 1583 l 2,2,3
 262 1583 262 1583 270 1579 c 0,4,5
 276 1576 276 1576 279 1556 c 2,6,-1
 281 1534 l 2,7,8
 281 1512 281 1512 274 1487 c 0,9,10
 268 1472 268 1472 260 1460 c 1,11,12
 181 1396 181 1396 178 1272 c 0,13,14
 176 1223 176 1223 176 1124 c 2,15,-1
 178 213 l 2,16,17
 178 23 178 23 272 -90 c 0,18,19
 272 -96 272 -96 276 -100 c 0,20,21
 284 -112 284 -112 287 -121 c 0,22,23
 291 -137 291 -137 291 -150 c 2,24,-1
 289 -164 l 2,25,26
 289 -184 289 -184 283 -190 c 0,27,28
 277 -199 277 -199 270 -199 c 2,29,-1
 258 -197 l 1,30,31
 188 -199 188 -199 94 -199 c 2,32,-1
 20 -199 l 1,0,-1
EndSplineSet
EndChar

StartChar: backslash
Encoding: 92 92 46
Width: 790
GlyphClass: 2
Flags: W
LayerCount: 2
Fore
SplineSet
20 1348 m 0,0,1
 20 1370 20 1370 82 1376 c 0,2,3
 112 1376 112 1376 129 1337 c 2,4,-1
 768 72 l 2,5,6
 788 37 788 37 791 20 c 0,7,8
 791 6 791 6 754 6 c 128,-1,9
 717 6 717 6 696.5 14.5 c 128,-1,10
 676 23 676 23 662 51 c 0,11,12
 455 471 455 471 33 1311 c 0,13,14
 20 1337 20 1337 20 1348 c 0,0,1
EndSplineSet
EndChar

StartChar: bracketright
Encoding: 93 93 47
Width: 290
GlyphClass: 2
Flags: W
LayerCount: 2
Fore
SplineSet
20 -150 m 2,0,1
 20 -141 20 -141 25 -121 c 0,2,3
 29 -109 29 -109 35 -100 c 0,4,5
 39 -96 39 -96 39 -90 c 0,6,7
 133 23 133 23 133 213 c 2,8,-1
 135 1124 l 2,9,10
 135 1223 135 1223 133 1272 c 0,11,12
 130 1396 130 1396 51 1460 c 1,13,14
 43 1472 43 1472 37 1487 c 0,15,16
 31 1508 31 1508 31 1534 c 2,17,-1
 33 1556 l 2,18,19
 36 1577 36 1577 41 1579 c 0,20,21
 49 1583 49 1583 53 1583 c 2,22,-1
 291 1583 l 1,23,-1
 291 -199 l 1,24,-1
 217 -199 l 2,25,26
 123 -199 123 -199 53 -197 c 1,27,-1
 41 -199 l 2,28,29
 35 -199 35 -199 29 -190 c 0,30,31
 23 -184 23 -184 23 -164 c 1,32,-1
 20 -150 l 2,0,1
EndSplineSet
EndChar

StartChar: asciicircum
Encoding: 94 94 48
Width: 700
GlyphClass: 2
Flags: W
LayerCount: 2
Fore
SplineSet
20 461 m 1,0,-1
 291 874 l 1,1,2
 317 887 317 887 356 887 c 0,3,4
 401 887 401 887 430 874 c 1,5,-1
 700 461 l 1,6,-1
 633 461 l 1,7,-1
 360 713 l 1,8,-1
 88 461 l 1,9,-1
 20 461 l 1,0,-1
EndSplineSet
EndChar

StartChar: underscore
Encoding: 95 95 49
Width: 755
GlyphClass: 2
Flags: W
LayerCount: 2
Fore
SplineSet
20 37 m 0,0,1
 20 69 20 69 31.5 76.5 c 128,-1,2
 43 84 43 84 94 84 c 0,3,4
 312 82 312 82 690 80 c 0,5,6
 731 80 731 80 743.5 74.5 c 128,-1,7
 756 69 756 69 756 51 c 0,8,9
 754 17 754 17 743 6.5 c 128,-1,10
 732 -4 732 -4 694 -4 c 2,11,-1
 92 -6 l 2,12,13
 40 -6 40 -6 30 0 c 128,-1,14
 20 6 20 6 20 37 c 0,0,1
EndSplineSet
EndChar

StartChar: grave
Encoding: 96 96 50
Width: 497
GlyphClass: 2
Flags: W
LayerCount: 2
Fore
SplineSet
20 1522 m 0,0,1
 20 1574 20 1574 58 1609.5 c 128,-1,2
 96 1645 96 1645 158 1645 c 0,3,4
 267 1645 267 1645 348 1554 c 0,5,6
 489 1397 489 1397 498 1186 c 1,7,-1
 494 1135 l 2,8,9
 494 1123 494 1123 485.5 1118.5 c 128,-1,10
 477 1114 477 1114 457 1112 c 0,11,12
 442 1112 442 1112 436 1126 c 0,13,14
 416 1172 416 1172 404.5 1196.5 c 128,-1,15
 393 1221 393 1221 371.5 1253 c 128,-1,16
 350 1285 350 1285 328.5 1300.5 c 128,-1,17
 307 1316 307 1316 274 1327.5 c 128,-1,18
 241 1339 241 1339 199 1339 c 0,19,20
 126 1339 126 1339 73 1397 c 128,-1,21
 20 1455 20 1455 20 1522 c 0,0,1
EndSplineSet
EndChar

StartChar: a
Encoding: 97 97 51
Width: 925
GlyphClass: 2
Flags: W
LayerCount: 2
Fore
SplineSet
20 260 m 0,0,1
 20 308 20 308 35 354 c 0,2,3
 94 547 94 547 319 547 c 0,4,5
 376 547 376 547 439 534.5 c 128,-1,6
 502 522 502 522 531.5 512 c 128,-1,7
 561 502 561 502 569 498 c 1,8,9
 575 589 575 589 575 662 c 0,10,11
 575 775 575 775 555 831.5 c 128,-1,12
 535 888 535 888 485 897 c 2,13,-1
 451 901 l 1,14,15
 411 901 411 901 398 876.5 c 128,-1,16
 385 852 385 852 385 803 c 2,17,-1
 385 762 l 2,18,19
 385 666 385 666 342 627 c 0,20,21
 297 588 297 588 242 588 c 128,-1,22
 187 588 187 588 146.5 624.5 c 128,-1,23
 106 661 106 661 106 715 c 0,24,25
 106 749 106 749 123 784 c 0,26,27
 163 867 163 867 251 908.5 c 128,-1,28
 339 950 339 950 453 950 c 0,29,30
 537 950 537 950 602 934 c 0,31,32
 676 917 676 917 726.5 874.5 c 128,-1,33
 777 832 777 832 801 768.5 c 128,-1,34
 825 705 825 705 834.5 641.5 c 128,-1,35
 844 578 844 578 844 496 c 0,36,37
 844 443 844 443 839 348 c 128,-1,38
 834 253 834 253 834 217 c 0,39,40
 834 104 834 104 868 84 c 0,41,42
 926 45 926 45 926 18 c 0,43,44
 926 -4 926 -4 825 -4 c 2,45,-1
 547 -6 l 2,46,47
 502 -6 502 -6 502 6 c 0,48,49
 502 12 502 12 520.5 36 c 128,-1,50
 539 60 539 60 539 76 c 1,51,52
 399 -14 399 -14 281 -14 c 128,-1,53
 163 -14 163 -14 91.5 67.5 c 128,-1,54
 20 149 20 149 20 260 c 0,0,1
315 248 m 0,55,56
 315 231 315 231 322 208 c 128,-1,57
 329 185 329 185 343.5 159 c 128,-1,58
 358 133 358 133 387.5 115.5 c 128,-1,59
 417 98 417 98 455 98 c 0,60,61
 496 98 496 98 541 117 c 1,62,-1
 555 426 l 1,63,64
 516 453 516 453 471 453 c 0,65,66
 408 453 408 453 361.5 402.5 c 128,-1,67
 315 352 315 352 315 248 c 0,55,56
EndSplineSet
EndChar

StartChar: b
Encoding: 98 98 52
Width: 937
GlyphClass: 2
Flags: W
LayerCount: 2
Fore
SplineSet
20 14 m 0,0,1
 20 44 20 44 68 76 c 0,2,3
 104 97 104 97 104 213 c 2,4,-1
 102 299 l 1,5,-1
 98 1016 l 2,6,7
 98 1067 98 1067 87 1098.5 c 128,-1,8
 76 1130 76 1130 63.5 1139 c 128,-1,9
 51 1148 51 1148 40 1163.5 c 128,-1,10
 29 1179 29 1179 29 1204 c 0,11,12
 29 1224 29 1224 88.5 1268 c 128,-1,13
 148 1312 148 1312 226.5 1349 c 128,-1,14
 305 1386 305 1386 350 1386 c 0,15,16
 365 1386 365 1386 377 1375.5 c 128,-1,17
 389 1365 389 1365 389 1350 c 2,18,-1
 379 821 l 1,19,20
 482 915 482 915 604 915 c 0,21,22
 670 915 670 915 730 884.5 c 128,-1,23
 790 854 790 854 836 799.5 c 128,-1,24
 882 745 882 745 909.5 663 c 128,-1,25
 937 581 937 581 938 483 c 2,26,-1
 938 477 l 2,27,28
 938 338 938 338 897 229 c 128,-1,29
 856 120 856 120 768.5 52 c 128,-1,30
 681 -16 681 -16 557 -16 c 0,31,32
 477 -16 477 -16 383 14 c 1,33,-1
 383 -4 l 1,34,-1
 41 -6 l 2,35,36
 20 -6 20 -6 20 14 c 0,0,1
379 754 m 1,37,-1
 381 90 l 1,38,-1
 399 88 l 1,39,40
 443 88 443 88 485.5 112 c 128,-1,41
 528 136 528 136 564 182 c 128,-1,42
 600 228 600 228 621.5 304 c 128,-1,43
 643 380 643 380 643 475 c 0,44,45
 643 631 643 631 592.5 713 c 128,-1,46
 542 795 542 795 471 795 c 0,47,48
 423 795 423 795 379 754 c 1,37,-1
EndSplineSet
EndChar

StartChar: c
Encoding: 99 99 53
Width: 821
GlyphClass: 2
Flags: W
LayerCount: 2
Fore
SplineSet
20 463 m 0,0,1
 20 640 20 640 116 774.5 c 128,-1,2
 212 909 212 909 383 930 c 0,3,4
 426 936 426 936 465 936 c 0,5,6
 541 936 541 936 600.5 916.5 c 128,-1,7
 660 897 660 897 692.5 866.5 c 128,-1,8
 725 836 725 836 741.5 805 c 128,-1,9
 758 774 758 774 760 745 c 2,10,-1
 760 737 l 2,11,12
 760 685 760 685 727 653 c 128,-1,13
 694 621 694 621 643 621 c 0,14,15
 597 621 597 621 565 647 c 128,-1,16
 533 673 533 673 516.5 709.5 c 128,-1,17
 500 746 500 746 485 783 c 128,-1,18
 470 820 470 820 446.5 846 c 128,-1,19
 423 872 423 872 389 872 c 0,20,21
 346 872 346 872 323.5 809 c 128,-1,22
 301 746 301 746 301 647 c 0,23,24
 301 564 301 564 316.5 477 c 128,-1,25
 332 390 332 390 360.5 314 c 128,-1,26
 389 238 389 238 435 189.5 c 128,-1,27
 481 141 481 141 535 141 c 2,28,-1
 541 141 l 1,29,30
 615 146 615 146 677.5 188 c 128,-1,31
 740 230 740 230 776 313 c 1,32,-1
 821 315 l 1,33,34
 819 280 819 280 803.5 237.5 c 128,-1,35
 788 195 788 195 757.5 150 c 128,-1,36
 727 105 727 105 686.5 67.5 c 128,-1,37
 646 30 646 30 588.5 6 c 128,-1,38
 531 -18 531 -18 467 -18 c 0,39,40
 379 -18 379 -18 305 9 c 128,-1,41
 231 36 231 36 179 82 c 128,-1,42
 127 128 127 128 91 190 c 128,-1,43
 55 252 55 252 37.5 321 c 128,-1,44
 20 390 20 390 20 463 c 0,0,1
EndSplineSet
EndChar

StartChar: d
Encoding: 100 100 54
Width: 950
GlyphClass: 2
Flags: W
LayerCount: 2
Fore
SplineSet
20 477 m 2,0,-1
 20 483 l 2,1,2
 21 581 21 581 49.5 663.5 c 128,-1,3
 78 746 78 746 125.5 800 c 128,-1,4
 173 854 173 854 235 884.5 c 128,-1,5
 297 915 297 915 365 915 c 0,6,7
 489 915 489 915 592 821 c 1,8,-1
 590 1016 l 2,9,10
 590 1058 590 1058 583 1086 c 128,-1,11
 576 1114 576 1114 565.5 1126.5 c 128,-1,12
 555 1139 555 1139 544.5 1148 c 128,-1,13
 534 1157 534 1157 527 1170 c 128,-1,14
 520 1183 520 1183 520 1204 c 0,15,16
 520 1224 520 1224 580 1268 c 128,-1,17
 640 1312 640 1312 719 1349 c 128,-1,18
 798 1386 798 1386 844 1386 c 0,19,20
 859 1386 859 1386 870 1375.5 c 128,-1,21
 881 1365 881 1365 881 1350 c 2,22,-1
 870 299 l 1,23,-1
 868 211 l 2,24,25
 868 98 868 98 903 76 c 0,26,27
 950 45 950 45 950 14 c 0,28,29
 950 -6 950 -6 930 -6 c 2,30,-1
 700 -6 l 1,31,-1
 700 -4 l 1,32,-1
 588 -4 l 1,33,-1
 588 14 l 1,34,35
 494 -16 494 -16 412 -16 c 0,36,37
 318 -16 318 -16 242.5 23 c 128,-1,38
 167 62 167 62 119 129.5 c 128,-1,39
 71 197 71 197 45.5 286 c 128,-1,40
 20 375 20 375 20 477 c 2,0,-1
315 475 m 0,41,42
 315 380 315 380 338.5 303.5 c 128,-1,43
 362 227 362 227 399.5 181.5 c 128,-1,44
 437 136 437 136 481.5 112 c 128,-1,45
 526 88 526 88 571 88 c 1,46,-1
 590 90 l 1,47,-1
 592 754 l 1,48,49
 548 795 548 795 496 795 c 0,50,51
 423 795 423 795 369 712.5 c 128,-1,52
 315 630 315 630 315 475 c 0,41,42
EndSplineSet
EndChar

StartChar: e
Encoding: 101 101 55
Width: 821
GlyphClass: 2
Flags: W
LayerCount: 2
Fore
SplineSet
20 465 m 0,0,1
 20 640 20 640 116 774.5 c 128,-1,2
 212 909 212 909 383 930 c 1,3,-1
 442 934 l 1,4,5
 589 934 589 934 683.5 853.5 c 128,-1,6
 778 773 778 773 778 662 c 128,-1,7
 778 551 778 551 673.5 455 c 128,-1,8
 569 359 569 359 360 315 c 1,9,10
 391 235 391 235 435.5 188 c 128,-1,11
 480 141 480 141 535 141 c 2,12,-1
 541 141 l 1,13,14
 616 146 616 146 678.5 188 c 128,-1,15
 741 230 741 230 776 313 c 1,16,-1
 821 315 l 1,17,18
 819 280 819 280 803.5 237.5 c 128,-1,19
 788 195 788 195 757.5 150 c 128,-1,20
 727 105 727 105 686.5 67.5 c 128,-1,21
 646 30 646 30 588.5 6 c 128,-1,22
 531 -18 531 -18 467 -18 c 0,23,24
 380 -18 380 -18 306 9 c 128,-1,25
 232 36 232 36 180 82.5 c 128,-1,26
 128 129 128 129 91.5 190.5 c 128,-1,27
 55 252 55 252 37.5 321.5 c 128,-1,28
 20 391 20 391 20 465 c 0,0,1
301 647 m 0,29,30
 301 495 301 495 344 362 c 1,31,32
 437 411 437 411 479.5 483.5 c 128,-1,33
 522 556 522 556 522 637 c 0,34,35
 522 727 522 727 478.5 799.5 c 128,-1,36
 435 872 435 872 389 872 c 0,37,38
 346 872 346 872 323.5 809 c 128,-1,39
 301 746 301 746 301 647 c 0,29,30
EndSplineSet
EndChar

StartChar: f
Encoding: 102 102 56
Width: 729
GlyphClass: 2
Flags: W
LayerCount: 2
Fore
SplineSet
20 915 m 1,0,-1
 23 979 l 1,1,-1
 139 979 l 1,2,3
 139 1081 139 1081 179 1178.5 c 128,-1,4
 219 1276 219 1276 288.5 1338.5 c 128,-1,5
 358 1401 358 1401 436 1401 c 0,6,7
 729 1401 729 1401 729 1210 c 0,8,9
 729 1150 729 1150 701 1103.5 c 128,-1,10
 673 1057 673 1057 621 1057 c 0,11,12
 594 1057 594 1057 571 1067 c 0,13,14
 510 1090 510 1090 510 1151 c 0,15,16
 510 1180 510 1180 529.5 1237 c 128,-1,17
 549 1294 549 1294 549 1313 c 0,18,19
 549 1352 549 1352 492 1352 c 0,20,21
 420 1352 420 1352 420 979 c 1,22,-1
 506 979 l 1,23,-1
 506 915 l 1,24,-1
 418 915 l 1,25,-1
 416 793 l 1,26,27
 416 424 416 424 432 133 c 1,28,29
 439 92 439 92 461 78 c 0,30,31
 508 47 508 47 508 18 c 0,32,33
 508 -2 508 -2 487 -2 c 2,34,-1
 86 -2 l 2,35,36
 66 -2 66 -2 66 18 c 0,37,38
 66 47 66 47 113 78 c 0,39,40
 128 89 128 89 136 118 c 128,-1,41
 144 147 144 147 145.5 171.5 c 128,-1,42
 147 196 147 196 147 236 c 0,43,44
 135 470 135 470 135 782 c 1,45,-1
 137 915 l 1,46,-1
 20 915 l 1,0,-1
EndSplineSet
EndChar

StartChar: g
Encoding: 103 103 57
Width: 1001
GlyphClass: 2
Flags: W
LayerCount: 2
Fore
SplineSet
20 -522 m 0,0,1
 20 -473 20 -473 61 -426 c 0,2,3
 108 -373 108 -373 174 -373 c 0,4,5
 221 -373 221 -373 258.5 -404 c 128,-1,6
 296 -435 296 -435 313 -494 c 0,7,8
 323 -528 323 -528 350 -552 c 128,-1,9
 377 -576 377 -576 406 -588 c 128,-1,10
 435 -600 435 -600 480 -606 c 128,-1,11
 525 -612 525 -612 551 -613 c 128,-1,12
 577 -614 577 -614 618 -614 c 0,13,14
 761 -614 761 -614 837 -575.5 c 128,-1,15
 913 -537 913 -537 913 -483 c 128,-1,16
 913 -429 913 -429 838 -391 c 0,17,18
 803 -373 803 -373 725.5 -367.5 c 128,-1,19
 648 -362 648 -362 561 -361.5 c 128,-1,20
 474 -361 474 -361 385.5 -355.5 c 128,-1,21
 297 -350 297 -350 220.5 -326.5 c 128,-1,22
 144 -303 144 -303 106 -258 c 0,23,24
 37 -176 37 -176 37 -76 c 0,25,26
 37 60 37 60 170 199 c 1,27,28
 90 321 90 321 90 473 c 0,29,30
 90 664 90 664 207.5 797 c 128,-1,31
 325 930 325 930 489 930 c 0,32,33
 508 930 508 930 518 928 c 1,34,35
 532 953 532 953 550.5 977.5 c 128,-1,36
 569 1002 569 1002 598 1030 c 128,-1,37
 627 1058 627 1058 666 1075 c 128,-1,38
 705 1092 705 1092 748 1092 c 0,39,40
 777 1092 777 1092 807 1083 c 0,41,42
 864 1065 864 1065 864 1016 c 0,43,44
 864 983 864 983 837 957.5 c 128,-1,45
 810 932 810 932 766 932 c 0,46,47
 728 932 728 932 692 948 c 0,48,49
 657 963 657 963 635 963 c 0,50,51
 590 963 590 963 565 922 c 1,52,53
 704 891 704 891 796.5 766 c 128,-1,54
 889 641 889 641 889 473 c 0,55,56
 889 281 889 281 771.5 147.5 c 128,-1,57
 654 14 654 14 489 14 c 0,58,59
 471 14 471 14 444.5 18 c 128,-1,60
 418 22 418 22 377 32.5 c 128,-1,61
 336 43 336 43 294.5 69 c 128,-1,62
 253 95 253 95 225 133 c 1,63,64
 172 86 172 86 172 43 c 0,65,66
 172 -5 172 -5 232.5 -35.5 c 128,-1,67
 293 -66 293 -66 377 -66 c 2,68,-1
 528 -63 l 2,69,70
 671 -63 671 -63 774 -82 c 0,71,72
 885 -103 885 -103 943 -185.5 c 128,-1,73
 1001 -268 1001 -268 1001 -377 c 0,74,75
 1001 -507 1001 -507 926 -608 c 0,76,77
 860 -695 860 -695 749 -741.5 c 128,-1,78
 638 -788 638 -788 506 -788 c 0,79,80
 314 -788 314 -788 141 -696 c 0,81,82
 97 -674 97 -674 58.5 -625.5 c 128,-1,83
 20 -577 20 -577 20 -522 c 0,0,1
371 473 m 0,84,85
 371 440 371 440 372 409.5 c 128,-1,86
 373 379 373 379 376.5 329 c 128,-1,87
 380 279 380 279 388 239 c 128,-1,88
 396 199 396 199 408 160 c 128,-1,89
 420 121 420 121 441 99.5 c 128,-1,90
 462 78 462 78 489 78 c 0,91,92
 526 78 526 78 552 124 c 128,-1,93
 578 170 578 170 589.5 241.5 c 128,-1,94
 601 313 601 313 605.5 369 c 128,-1,95
 610 425 610 425 610 473 c 2,96,-1
 610 526 l 2,97,98
 610 790 610 790 541 848 c 0,99,100
 532 857 532 857 514 864 c 0,101,102
 508 866 508 866 489 866 c 0,103,104
 371 866 371 866 371 473 c 0,84,85
EndSplineSet
EndChar

StartChar: h
Encoding: 104 104 58
Width: 1034
GlyphClass: 2
Flags: W
LayerCount: 2
Fore
SplineSet
20 18 m 0,0,1
 20 46 20 46 68 78 c 0,2,3
 96 96 96 96 100 188 c 1,4,-1
 94 1022 l 2,5,6
 94 1073 94 1073 83 1103.5 c 128,-1,7
 72 1134 72 1134 59.5 1143 c 128,-1,8
 47 1152 47 1152 36 1167.5 c 128,-1,9
 25 1183 25 1183 25 1208 c 0,10,11
 25 1231 25 1231 100 1286 c 0,12,13
 164 1329 164 1329 250 1368 c 1,14,15
 316 1393 316 1393 346 1393 c 0,16,17
 361 1393 361 1393 373 1382 c 128,-1,18
 385 1371 385 1371 385 1356 c 0,19,20
 381 1061 381 1061 381 772 c 1,21,22
 439 858 439 858 493 894 c 128,-1,23
 547 930 547 930 618 930 c 2,24,-1
 625 930 l 2,25,26
 687 929 687 929 737 910.5 c 128,-1,27
 787 892 787 892 821.5 862.5 c 128,-1,28
 856 833 856 833 881.5 789 c 128,-1,29
 907 745 907 745 922 698 c 128,-1,30
 937 651 937 651 946 591 c 128,-1,31
 955 531 955 531 958 478 c 128,-1,32
 961 425 961 425 961 360 c 0,33,34
 961 312 961 312 956 147 c 1,35,36
 963 96 963 96 987 78 c 0,37,38
 1034 47 1034 47 1034 18 c 0,39,40
 1034 -2 1034 -2 1014 -2 c 2,41,-1
 612 -2 l 2,42,43
 594 -2 594 -2 594 16 c 0,44,45
 594 47 594 47 641 78 c 0,46,47
 664 95 664 95 670 143 c 1,48,49
 670 231 670 231 669.5 308 c 128,-1,50
 669 385 669 385 668.5 429.5 c 128,-1,51
 668 474 668 474 668 481 c 0,52,53
 668 760 668 760 539 760 c 0,54,55
 491 760 491 760 440 726.5 c 128,-1,56
 389 693 389 693 381 676 c 1,57,-1
 381 217 l 2,58,59
 381 101 381 101 414 78 c 0,60,61
 461 47 461 47 461 16 c 0,62,63
 461 -2 461 -2 442 -2 c 2,64,-1
 41 -2 l 2,65,66
 20 -2 20 -2 20 18 c 0,0,1
EndSplineSet
EndChar

StartChar: i
Encoding: 105 105 59
Width: 462
GlyphClass: 2
Flags: W
LayerCount: 2
Fore
SplineSet
20 18 m 0,0,1
 20 45 20 45 70 78 c 0,2,3
 98 96 98 96 102 188 c 0,4,5
 102 210 102 210 98.5 375.5 c 128,-1,6
 95 541 95 541 94 551 c 0,7,8
 94 602 94 602 83.5 633.5 c 128,-1,9
 73 665 73 665 60.5 674 c 128,-1,10
 48 683 48 683 37.5 698.5 c 128,-1,11
 27 714 27 714 27 739 c 0,12,13
 27 763 27 763 102 815 c 0,14,15
 184 870 184 870 252 897 c 0,16,17
 318 922 318 922 348 922 c 0,18,19
 363 922 363 922 374 911 c 128,-1,20
 385 900 385 900 385 885 c 2,21,-1
 380 461 l 1,22,23
 380 461 380 461 380 452 c 2,24,-1
 383 303 l 1,25,-1
 380 211 l 2,26,27
 380 100 380 100 416 78 c 0,28,29
 463 47 463 47 463 18 c 0,30,31
 463 -2 463 -2 442 -2 c 2,32,-1
 41 -2 l 2,33,34
 20 -2 20 -2 20 18 c 0,0,1
35 1204 m 0,35,36
 35 1281 35 1281 92.5 1335 c 128,-1,37
 150 1389 150 1389 233 1389 c 0,38,39
 315 1389 315 1389 373.5 1334.5 c 128,-1,40
 432 1280 432 1280 432 1204 c 0,41,42
 432 1129 432 1129 373.5 1075.5 c 128,-1,43
 315 1022 315 1022 233 1022 c 0,44,45
 150 1022 150 1022 92.5 1075.5 c 128,-1,46
 35 1129 35 1129 35 1204 c 0,35,36
EndSplineSet
EndChar

StartChar: j
Encoding: 106 106 60
Width: 708
GlyphClass: 2
Flags: W
LayerCount: 2
Fore
SplineSet
20 -451 m 0,0,1
 20 -393 20 -393 57.5 -344 c 128,-1,2
 95 -295 95 -295 152 -295 c 0,3,4
 174 -295 174 -295 201 -305 c 0,5,6
 262 -331 262 -331 262 -389 c 0,7,8
 262 -420 262 -420 242.5 -477 c 128,-1,9
 223 -534 223 -534 223 -553 c 0,10,11
 223 -592 223 -592 281 -592 c 0,12,13
 297 -592 297 -592 309.5 -576 c 128,-1,14
 322 -560 322 -560 329.5 -530 c 128,-1,15
 337 -500 337 -500 342 -466 c 128,-1,16
 347 -432 347 -432 349 -387 c 128,-1,17
 351 -342 351 -342 352 -306 c 128,-1,18
 353 -270 353 -270 354 -224.5 c 128,-1,19
 355 -179 355 -179 356 -156 c 2,20,-1
 360 551 l 2,21,22
 360 602 360 602 349 633.5 c 128,-1,23
 338 665 338 665 325.5 674 c 128,-1,24
 313 683 313 683 302 698.5 c 128,-1,25
 291 714 291 714 291 739 c 0,26,27
 291 759 291 759 350.5 803.5 c 128,-1,28
 410 848 410 848 489 885 c 128,-1,29
 568 922 568 922 614 922 c 0,30,31
 629 922 629 922 640 911 c 128,-1,32
 651 900 651 900 651 885 c 0,33,34
 649 756 649 756 649 602 c 2,35,-1
 651 227 l 2,36,37
 651 97 651 97 648 1.5 c 128,-1,38
 645 -94 645 -94 637 -189.5 c 128,-1,39
 629 -285 629 -285 615 -351 c 128,-1,40
 601 -417 601 -417 577.5 -475.5 c 128,-1,41
 554 -534 554 -534 520.5 -568 c 128,-1,42
 487 -602 487 -602 441 -621.5 c 128,-1,43
 395 -641 395 -641 336 -641 c 0,44,45
 274 -641 274 -641 221.5 -632.5 c 128,-1,46
 169 -624 169 -624 121.5 -603.5 c 128,-1,47
 74 -583 74 -583 47 -544 c 128,-1,48
 20 -505 20 -505 20 -451 c 0,0,1
311 1204 m 0,49,50
 311 1281 311 1281 369 1335 c 128,-1,51
 427 1389 427 1389 510 1389 c 128,-1,52
 593 1389 593 1389 651 1335 c 128,-1,53
 709 1281 709 1281 709 1204 c 0,54,55
 709 1129 709 1129 651 1075.5 c 128,-1,56
 593 1022 593 1022 510 1022 c 128,-1,57
 427 1022 427 1022 369 1075.5 c 128,-1,58
 311 1129 311 1129 311 1204 c 0,49,50
EndSplineSet
EndChar

StartChar: k
Encoding: 107 107 61
Width: 1046
GlyphClass: 2
Flags: W
LayerCount: 2
Fore
SplineSet
20 18 m 0,0,1
 20 46 20 46 68 78 c 0,2,3
 96 96 96 96 100 188 c 1,4,-1
 94 1022 l 2,5,6
 94 1073 94 1073 83 1103.5 c 128,-1,7
 72 1134 72 1134 59.5 1143 c 128,-1,8
 47 1152 47 1152 36 1167.5 c 128,-1,9
 25 1183 25 1183 25 1208 c 0,10,11
 25 1229 25 1229 84.5 1274 c 128,-1,12
 144 1319 144 1319 222.5 1356 c 128,-1,13
 301 1393 301 1393 346 1393 c 0,14,15
 361 1393 361 1393 373 1382 c 128,-1,16
 385 1371 385 1371 385 1356 c 0,17,18
 381 1045 381 1045 381 750 c 2,19,-1
 381 545 l 1,20,-1
 705 854 l 2,21,22
 719 871 719 871 719 879 c 0,23,24
 719 886 719 886 708.5 892 c 128,-1,25
 698 898 698 898 698 903 c 0,26,27
 698 915 698 915 745 915 c 2,28,-1
 854 915 l 2,29,30
 889 915 889 915 889 897 c 0,31,32
 889 891 889 891 875 886.5 c 128,-1,33
 861 882 861 882 833.5 872 c 128,-1,34
 806 862 806 862 784 846 c 1,35,-1
 612 666 l 1,36,-1
 872 176 l 2,37,38
 899 124 899 124 932.5 89 c 128,-1,39
 966 54 966 54 1016 45 c 0,40,41
 1047 39 1047 39 1047 18 c 0,42,43
 1047 8 1047 8 1035.5 1 c 128,-1,44
 1024 -6 1024 -6 1004 -6 c 2,45,-1
 573 -6 l 2,46,47
 537 -6 537 -6 537 12 c 0,48,49
 537 23 537 23 549.5 35 c 128,-1,50
 562 47 562 47 580 51 c 0,51,52
 597 56 597 56 609.5 67 c 128,-1,53
 622 78 622 78 625.5 85 c 128,-1,54
 629 92 629 92 629 94 c 2,55,-1
 414 496 l 1,56,-1
 381 465 l 1,57,-1
 381 217 l 2,58,59
 381 101 381 101 414 78 c 0,60,61
 461 47 461 47 461 16 c 0,62,63
 461 -2 461 -2 442 -2 c 2,64,-1
 41 -2 l 2,65,66
 20 -2 20 -2 20 18 c 0,0,1
EndSplineSet
EndChar

StartChar: l
Encoding: 108 108 62
Width: 462
GlyphClass: 2
Flags: W
LayerCount: 2
Fore
SplineSet
20 18 m 0,0,1
 20 46 20 46 68 78 c 0,2,3
 98 96 98 96 102 188 c 1,4,-1
 94 1022 l 2,5,6
 94 1073 94 1073 83.5 1103.5 c 128,-1,7
 73 1134 73 1134 60.5 1143 c 128,-1,8
 48 1152 48 1152 37.5 1167.5 c 128,-1,9
 27 1183 27 1183 27 1208 c 0,10,11
 27 1231 27 1231 102 1286 c 0,12,13
 166 1329 166 1329 252 1368 c 1,14,15
 318 1393 318 1393 348 1393 c 0,16,17
 363 1393 363 1393 374 1382 c 128,-1,18
 385 1371 385 1371 385 1356 c 2,19,-1
 381 688 l 1,20,-1
 381 221 l 2,21,22
 381 101 381 101 416 78 c 0,23,24
 463 47 463 47 463 18 c 0,25,26
 463 -2 463 -2 442 -2 c 2,27,-1
 41 -2 l 2,28,29
 20 -2 20 -2 20 18 c 0,0,1
EndSplineSet
EndChar

StartChar: m
Encoding: 109 109 63
Width: 1511
GlyphClass: 2
Flags: W
LayerCount: 2
Fore
SplineSet
20 18 m 0,0,1
 20 46 20 46 68 78 c 0,2,3
 98 96 98 96 102 188 c 0,4,5
 101 200 101 200 96.5 368 c 128,-1,6
 92 536 92 536 92 555 c 0,7,8
 92 606 92 606 81 636.5 c 128,-1,9
 70 667 70 667 57.5 676 c 128,-1,10
 45 685 45 685 34 700.5 c 128,-1,11
 23 716 23 716 23 741 c 0,12,13
 23 761 23 761 82.5 805.5 c 128,-1,14
 142 850 142 850 220.5 887 c 128,-1,15
 299 924 299 924 344 924 c 0,16,17
 359 924 359 924 370 913 c 128,-1,18
 381 902 381 902 381 887 c 2,19,-1
 381 772 l 1,20,21
 439 858 439 858 494 894 c 128,-1,22
 549 930 549 930 621 930 c 2,23,-1
 627 930 l 2,24,25
 675 929 675 929 713 915.5 c 128,-1,26
 751 902 751 902 776.5 877 c 128,-1,27
 802 852 802 852 818 828 c 128,-1,28
 834 804 834 804 848 772 c 1,29,30
 906 857 906 857 964 893.5 c 128,-1,31
 1022 930 1022 930 1096 930 c 2,32,-1
 1102 930 l 2,33,34
 1164 929 1164 929 1214.5 910 c 128,-1,35
 1265 891 1265 891 1299.5 861 c 128,-1,36
 1334 831 1334 831 1359 785.5 c 128,-1,37
 1384 740 1384 740 1398.5 693 c 128,-1,38
 1413 646 1413 646 1422 584 c 128,-1,39
 1431 522 1431 522 1433.5 468.5 c 128,-1,40
 1436 415 1436 415 1436 348 c 2,41,-1
 1434 147 l 1,42,43
 1441 93 1441 93 1464 78 c 0,44,45
 1511 47 1511 47 1511 18 c 0,46,47
 1511 -2 1511 -2 1491 -2 c 2,48,-1
 1090 -2 l 2,49,50
 1069 -2 1069 -2 1069 18 c 0,51,52
 1069 47 1069 47 1116 78 c 0,53,54
 1138 94 1138 94 1147 143 c 1,55,-1
 1145 481 l 2,56,57
 1145 760 1145 760 1010 760 c 0,58,59
 945 760 945 760 877 705 c 1,60,61
 918 578 918 578 918 354 c 0,62,63
 918 312 918 312 913 147 c 1,64,65
 920 96 920 96 944 78 c 0,66,67
 991 47 991 47 991 18 c 0,68,69
 991 -2 991 -2 971 -2 c 2,70,-1
 569 -2 l 2,71,72
 551 -2 551 -2 551 16 c 0,73,74
 551 47 551 47 598 78 c 0,75,76
 621 95 621 95 627 143 c 1,77,78
 627 231 627 231 626.5 308 c 128,-1,79
 626 385 626 385 625.5 429.5 c 128,-1,80
 625 474 625 474 625 481 c 0,81,82
 625 632 625 632 594.5 696 c 128,-1,83
 564 760 564 760 516 760 c 0,84,85
 477 760 477 760 435.5 728 c 128,-1,86
 394 696 394 696 381 676 c 1,87,-1
 381 221 l 2,88,89
 381 101 381 101 416 78 c 0,90,91
 463 47 463 47 463 18 c 0,92,93
 463 -2 463 -2 442 -2 c 2,94,-1
 41 -2 l 2,95,96
 20 -2 20 -2 20 18 c 0,0,1
EndSplineSet
EndChar

StartChar: n
Encoding: 110 110 64
Width: 1036
GlyphClass: 2
Flags: W
LayerCount: 2
Fore
SplineSet
20 18 m 0,0,1
 20 46 20 46 68 78 c 0,2,3
 98 96 98 96 102 188 c 1,4,-1
 92 555 l 2,5,6
 92 606 92 606 81 636.5 c 128,-1,7
 70 667 70 667 57.5 676 c 128,-1,8
 45 685 45 685 34 700.5 c 128,-1,9
 23 716 23 716 23 741 c 0,10,11
 23 761 23 761 82.5 805.5 c 128,-1,12
 142 850 142 850 220.5 887 c 128,-1,13
 299 924 299 924 344 924 c 0,14,15
 359 924 359 924 371 913 c 128,-1,16
 383 902 383 902 383 887 c 2,17,-1
 381 772 l 1,18,19
 439 858 439 858 494 894 c 128,-1,20
 549 930 549 930 621 930 c 2,21,-1
 627 930 l 2,22,23
 689 929 689 929 739.5 910 c 128,-1,24
 790 891 790 891 824.5 861 c 128,-1,25
 859 831 859 831 884 785.5 c 128,-1,26
 909 740 909 740 923.5 693 c 128,-1,27
 938 646 938 646 947 584 c 128,-1,28
 956 522 956 522 958.5 468.5 c 128,-1,29
 961 415 961 415 961 348 c 2,30,-1
 958 147 l 1,31,32
 965 94 965 94 989 78 c 0,33,34
 1036 47 1036 47 1036 18 c 0,35,36
 1036 -2 1036 -2 1016 -2 c 2,37,-1
 614 -2 l 2,38,39
 594 -2 594 -2 594 18 c 0,40,41
 594 47 594 47 641 78 c 0,42,43
 666 97 666 97 672 143 c 1,44,-1
 670 481 l 2,45,46
 670 760 670 760 541 760 c 0,47,48
 493 760 493 760 443 727 c 128,-1,49
 393 694 393 694 381 676 c 1,50,-1
 383 510 l 1,51,-1
 381 221 l 2,52,53
 381 101 381 101 416 78 c 0,54,55
 463 47 463 47 463 18 c 0,56,57
 463 -2 463 -2 442 -2 c 2,58,-1
 41 -2 l 2,59,60
 20 -2 20 -2 20 18 c 0,0,1
EndSplineSet
EndChar

StartChar: o
Encoding: 111 111 65
Width: 899
GlyphClass: 2
Flags: W
LayerCount: 2
Fore
SplineSet
20 434 m 0,0,1
 20 531 20 531 50.5 619.5 c 128,-1,2
 81 708 81 708 136.5 776.5 c 128,-1,3
 192 845 192 845 276.5 885.5 c 128,-1,4
 361 926 361 926 461 926 c 0,5,6
 563 926 563 926 647.5 885 c 128,-1,7
 732 844 732 844 786 775 c 128,-1,8
 840 706 840 706 869.5 618 c 128,-1,9
 899 530 899 530 899 434 c 0,10,11
 899 333 899 333 872.5 249 c 128,-1,12
 846 165 846 165 793.5 101 c 128,-1,13
 741 37 741 37 656 1 c 128,-1,14
 571 -35 571 -35 461 -35 c 0,15,16
 246 -35 246 -35 133 94 c 128,-1,17
 20 223 20 223 20 434 c 0,0,1
301 434 m 0,18,19
 301 252 301 252 347.5 138.5 c 128,-1,20
 394 25 394 25 461 25 c 128,-1,21
 528 25 528 25 573 135.5 c 128,-1,22
 618 246 618 246 618 434 c 0,23,24
 618 630 618 630 572.5 754.5 c 128,-1,25
 527 879 527 879 461 879 c 0,26,27
 393 879 393 879 347 763 c 128,-1,28
 301 647 301 647 301 434 c 0,18,19
EndSplineSet
EndChar

StartChar: p
Encoding: 112 112 66
Width: 940
GlyphClass: 2
Flags: W
LayerCount: 2
Fore
SplineSet
20 741 m 0,0,1
 20 762 20 762 80.5 807 c 128,-1,2
 141 852 141 852 220 889 c 128,-1,3
 299 926 299 926 344 926 c 0,4,5
 359 926 359 926 370 915 c 128,-1,6
 381 904 381 904 381 889 c 2,7,-1
 381 821 l 1,8,9
 484 915 484 915 606 915 c 0,10,11
 672 915 672 915 732 884.5 c 128,-1,12
 792 854 792 854 838 799.5 c 128,-1,13
 884 745 884 745 911.5 663 c 128,-1,14
 939 581 939 581 940 483 c 2,15,-1
 940 477 l 2,16,17
 940 338 940 338 898.5 228.5 c 128,-1,18
 857 119 857 119 769 51.5 c 128,-1,19
 681 -16 681 -16 557 -16 c 0,20,21
 472 -16 472 -16 387 12 c 1,22,-1
 389 -117 l 1,23,-1
 387 -287 l 1,24,-1
 385 -340 l 1,25,26
 385 -488 385 -488 422 -512 c 0,27,28
 469 -543 469 -543 469 -571 c 0,29,30
 469 -592 469 -592 449 -592 c 2,31,-1
 47 -592 l 2,32,33
 27 -592 27 -592 27 -571 c 0,34,35
 27 -543 27 -543 74 -512 c 0,36,37
 105 -491 105 -491 109 -399 c 1,38,-1
 90 555 l 2,39,40
 90 606 90 606 79 636.5 c 128,-1,41
 68 667 68 667 55 676 c 128,-1,42
 42 685 42 685 31 700.5 c 128,-1,43
 20 716 20 716 20 741 c 0,0,1
381 754 m 1,44,-1
 387 90 l 1,45,-1
 403 90 l 2,46,47
 447 90 447 90 489.5 114 c 128,-1,48
 532 138 532 138 567 183.5 c 128,-1,49
 602 229 602 229 623.5 305 c 128,-1,50
 645 381 645 381 645 475 c 0,51,52
 645 631 645 631 594.5 713 c 128,-1,53
 544 795 544 795 473 795 c 0,54,55
 425 795 425 795 381 754 c 1,44,-1
EndSplineSet
EndChar

StartChar: q
Encoding: 113 113 67
Width: 940
GlyphClass: 2
Flags: W
LayerCount: 2
Fore
SplineSet
20 485 m 2,0,-1
 20 492 l 2,1,2
 21 590 21 590 48.5 672 c 128,-1,3
 76 754 76 754 122 808.5 c 128,-1,4
 168 863 168 863 228 893.5 c 128,-1,5
 288 924 288 924 354 924 c 0,6,7
 476 924 476 924 580 829 c 1,8,-1
 580 881 l 2,9,10
 580 896 580 896 590.5 907 c 128,-1,11
 601 918 601 918 616 918 c 2,12,-1
 739 920 l 2,13,14
 940 920 940 920 940 885 c 0,15,16
 940 872 940 872 929 862.5 c 128,-1,17
 918 853 918 853 905 845 c 128,-1,18
 892 837 892 837 881 808.5 c 128,-1,19
 870 780 870 780 870 733 c 2,20,-1
 854 -393 l 2,21,22
 854 -483 854 -483 887 -504 c 0,23,24
 934 -535 934 -535 934 -563 c 0,25,26
 934 -572 934 -572 928 -578 c 128,-1,27
 922 -584 922 -584 913 -584 c 2,28,-1
 512 -584 l 2,29,30
 492 -584 492 -584 492 -563 c 0,31,32
 492 -535 492 -535 539 -504 c 0,33,34
 575 -481 575 -481 575 -332 c 1,35,-1
 573 -279 l 1,36,-1
 573 20 l 1,37,38
 485 -8 485 -8 401 -8 c 0,39,40
 277 -8 277 -8 189.5 60 c 128,-1,41
 102 128 102 128 61 237 c 128,-1,42
 20 346 20 346 20 485 c 2,0,-1
315 483 m 0,43,44
 315 389 315 389 336.5 313 c 128,-1,45
 358 237 358 237 393 191.5 c 128,-1,46
 428 146 428 146 470.5 122 c 128,-1,47
 513 98 513 98 557 98 c 2,48,-1
 573 98 l 1,49,-1
 580 760 l 1,50,51
 537 803 537 803 485 803 c 0,52,53
 416 803 416 803 365.5 720.5 c 128,-1,54
 315 638 315 638 315 483 c 0,43,44
EndSplineSet
EndChar

StartChar: r
Encoding: 114 114 68
Width: 911
GlyphClass: 2
Flags: W
LayerCount: 2
Fore
SplineSet
20 18 m 0,0,1
 20 46 20 46 68 78 c 0,2,3
 100 98 100 98 100 188 c 2,4,-1
 90 555 l 2,5,6
 90 606 90 606 79 636.5 c 128,-1,7
 68 667 68 667 55 676 c 128,-1,8
 42 685 42 685 31 700.5 c 128,-1,9
 20 716 20 716 20 741 c 0,10,11
 20 761 20 761 80 805.5 c 128,-1,12
 140 850 140 850 219 887 c 128,-1,13
 298 924 298 924 344 924 c 0,14,15
 359 924 359 924 370 913 c 128,-1,16
 381 902 381 902 381 887 c 2,17,-1
 381 772 l 1,18,19
 439 858 439 858 493 894 c 128,-1,20
 547 930 547 930 618 930 c 2,21,-1
 625 930 l 2,22,23
 737 927 737 927 824 845 c 128,-1,24
 911 763 911 763 911 670 c 2,25,-1
 911 662 l 2,26,27
 908 609 908 609 889.5 568.5 c 128,-1,28
 871 528 871 528 844.5 505.5 c 128,-1,29
 818 483 818 483 795 472 c 128,-1,30
 772 461 772 461 752 457 c 2,31,-1
 721 455 l 1,32,33
 656 455 656 455 612.5 492 c 128,-1,34
 569 529 569 529 569 582 c 0,35,36
 569 612 569 612 586 645 c 0,37,38
 625 716 625 716 625 758 c 0,39,40
 625 790 625 790 605.5 805.5 c 128,-1,41
 586 821 586 821 561 821 c 0,42,43
 542 821 542 821 530 815 c 0,44,45
 496 800 496 800 443.5 747 c 128,-1,46
 391 694 391 694 381 676 c 1,47,-1
 381 221 l 2,48,49
 381 101 381 101 416 78 c 0,50,51
 461 47 461 47 461 16 c 0,52,53
 461 -2 461 -2 442 -2 c 2,54,-1
 41 -2 l 2,55,56
 20 -2 20 -2 20 18 c 0,0,1
EndSplineSet
EndChar

StartChar: s
Encoding: 115 115 69
Width: 823
GlyphClass: 2
Flags: W
LayerCount: 2
Fore
SplineSet
20 205 m 0,0,1
 20 253 20 253 49 286 c 128,-1,2
 78 319 78 319 137 319 c 0,3,4
 173 319 173 319 200 306 c 128,-1,5
 227 293 227 293 241 272.5 c 128,-1,6
 255 252 255 252 262 233 c 128,-1,7
 269 214 269 214 270 197 c 0,8,9
 272 165 272 165 279.5 137.5 c 128,-1,10
 287 110 287 110 303 81.5 c 128,-1,11
 319 53 319 53 350 36.5 c 128,-1,12
 381 20 381 20 424 20 c 0,13,14
 493 20 493 20 530 44 c 128,-1,15
 567 68 567 68 567 106 c 0,16,17
 567 153 567 153 512.5 205.5 c 128,-1,18
 458 258 458 258 360 293 c 0,19,20
 216 345 216 345 131.5 435 c 128,-1,21
 47 525 47 525 47 633 c 1,22,-1
 49 657 l 2,23,24
 59 785 59 785 165.5 860.5 c 128,-1,25
 272 936 272 936 430 936 c 0,26,27
 577 936 577 936 672 874.5 c 128,-1,28
 767 813 767 813 793 702 c 1,29,-1
 797 674 l 1,30,31
 797 626 797 626 758 594.5 c 128,-1,32
 719 563 719 563 666 563 c 0,33,34
 644 563 644 563 623.5 566 c 128,-1,35
 603 569 603 569 576 578.5 c 128,-1,36
 549 588 549 588 532.5 610 c 128,-1,37
 516 632 516 632 516 664 c 0,38,39
 516 690 516 690 532 733 c 0,40,41
 541 754 541 754 541 776 c 0,42,43
 541 821 541 821 508.5 855 c 128,-1,44
 476 889 476 889 430 889 c 0,45,46
 383 889 383 889 334 854 c 128,-1,47
 285 819 285 819 285 756 c 0,48,49
 285 708 285 708 303.5 670.5 c 128,-1,50
 322 633 322 633 355.5 609 c 128,-1,51
 389 585 389 585 416 571.5 c 128,-1,52
 443 558 443 558 481 545 c 0,53,54
 621 497 621 497 679 463 c 0,55,56
 823 376 823 376 823 219 c 2,57,-1
 823 213 l 2,58,59
 821 145 821 145 787.5 96.5 c 128,-1,60
 754 48 754 48 696.5 22 c 128,-1,61
 639 -4 639 -4 572 -15.5 c 128,-1,62
 505 -27 505 -27 424 -27 c 0,63,64
 283 -27 283 -27 186.5 13.5 c 128,-1,65
 90 54 90 54 43 125 c 0,66,67
 20 158 20 158 20 205 c 0,0,1
EndSplineSet
EndChar

StartChar: t
Encoding: 116 116 70
Width: 712
GlyphClass: 2
Flags: W
LayerCount: 2
Fore
SplineSet
20 854 m 1,0,-1
 20 918 l 1,1,2
 150 930 150 930 243.5 1033.5 c 128,-1,3
 337 1137 337 1137 362 1286 c 1,4,-1
 393 1286 l 2,5,6
 410 1286 410 1286 422 1274 c 128,-1,7
 434 1262 434 1262 434 1245 c 2,8,-1
 434 918 l 1,9,-1
 588 918 l 2,10,11
 601 918 601 918 609.5 908.5 c 128,-1,12
 618 899 618 899 618 887 c 0,13,14
 618 873 618 873 609.5 863.5 c 128,-1,15
 601 854 601 854 588 854 c 2,16,-1
 434 854 l 1,17,-1
 434 346 l 2,18,19
 434 304 434 304 437.5 261.5 c 128,-1,20
 441 219 441 219 450.5 162.5 c 128,-1,21
 460 106 460 106 483.5 70.5 c 128,-1,22
 507 35 507 35 541 35 c 0,23,24
 557 35 557 35 572.5 38.5 c 128,-1,25
 588 42 588 42 601.5 50 c 128,-1,26
 615 58 615 58 625 64.5 c 128,-1,27
 635 71 635 71 646 83 c 128,-1,28
 657 95 657 95 662 101 c 128,-1,29
 667 107 667 107 676 118.5 c 128,-1,30
 685 130 685 130 686 131 c 1,31,-1
 713 104 l 1,32,33
 671 39 671 39 610.5 12.5 c 128,-1,34
 550 -14 550 -14 498 -14 c 0,35,36
 346 -14 346 -14 251 87 c 128,-1,37
 156 188 156 188 156 393 c 2,38,-1
 156 854 l 1,39,-1
 20 854 l 1,0,-1
EndSplineSet
EndChar

StartChar: u
Encoding: 117 117 71
Width: 980
GlyphClass: 2
Flags: W
LayerCount: 2
Fore
SplineSet
20 895 m 0,0,1
 20 915 20 915 41 915 c 2,2,-1
 350 915 l 2,3,4
 364 915 364 915 373.5 905.5 c 128,-1,5
 383 896 383 896 383 883 c 0,6,7
 387 629 387 629 387 289 c 0,8,9
 387 192 387 192 420 130 c 128,-1,10
 453 68 453 68 504 68 c 0,11,12
 514 68 514 68 523 70 c 128,-1,13
 532 72 532 72 547 79 c 128,-1,14
 562 86 562 86 574 101.5 c 128,-1,15
 586 117 586 117 597 139.5 c 128,-1,16
 608 162 608 162 614.5 201 c 128,-1,17
 621 240 621 240 621 289 c 2,18,-1
 623 770 l 1,19,20
 616 822 616 822 594 836 c 0,21,22
 547 867 547 867 547 897 c 0,23,24
 547 915 547 915 565 915 c 2,25,-1
 870 915 l 2,26,27
 884 915 884 915 894.5 905.5 c 128,-1,28
 905 896 905 896 905 881 c 0,29,30
 905 759 905 759 903 580.5 c 128,-1,31
 901 402 901 402 901 303 c 2,32,-1
 901 217 l 2,33,34
 901 101 901 101 934 78 c 0,35,36
 981 47 981 47 981 16 c 0,37,38
 981 -2 981 -2 963 -2 c 2,39,-1
 657 -2 l 2,40,41
 642 -2 642 -2 632.5 8 c 128,-1,42
 623 18 623 18 623 33 c 2,43,-1
 623 72 l 1,44,45
 553 -8 553 -8 457 -8 c 0,46,47
 389 -8 389 -8 335.5 6 c 128,-1,48
 282 20 282 20 244 44.5 c 128,-1,49
 206 69 206 69 179 109.5 c 128,-1,50
 152 150 152 150 136 194 c 128,-1,51
 120 238 120 238 111 302 c 128,-1,52
 102 366 102 366 99 426.5 c 128,-1,53
 96 487 96 487 96 569 c 2,54,-1
 98 766 l 1,55,56
 91 821 91 821 68 836 c 0,57,58
 20 868 20 868 20 895 c 0,0,1
EndSplineSet
EndChar

StartChar: v
Encoding: 118 118 72
Width: 1054
GlyphClass: 2
Flags: W
LayerCount: 2
Fore
SplineSet
20 883 m 0,0,1
 20 910 20 910 72 914 c 1,2,-1
 342 914 l 1,3,-1
 371 918 l 1,4,5
 453 918 453 918 453 885 c 0,6,7
 453 877 453 877 445 871 c 128,-1,8
 437 865 437 865 428 862 c 128,-1,9
 419 859 419 859 411 850 c 128,-1,10
 403 841 403 841 403 827 c 1,11,-1
 614 209 l 2,12,13
 621 195 621 195 633 195 c 0,14,15
 648 195 648 195 651 209 c 2,16,-1
 852 817 l 1,17,-1
 854 829 l 2,18,19
 854 842 854 842 846.5 850.5 c 128,-1,20
 839 859 839 859 829.5 862 c 128,-1,21
 820 865 820 865 812.5 871 c 128,-1,22
 805 877 805 877 805 885 c 0,23,24
 805 918 805 918 887 918 c 1,25,-1
 915 914 l 1,26,-1
 991 914 l 2,27,28
 1055 914 1055 914 1055 883 c 0,29,30
 1055 872 1055 872 1043.5 864.5 c 128,-1,31
 1032 857 1032 857 1016.5 851.5 c 128,-1,32
 1001 846 1001 846 982 829.5 c 128,-1,33
 963 813 963 813 952 788 c 2,34,-1
 709 86 l 1,35,36
 671 -6 671 -6 596 -6 c 2,37,-1
 487 -6 l 2,38,39
 452 -6 452 -6 423 24.5 c 128,-1,40
 394 55 394 55 381 86 c 2,41,-1
 117 799 l 2,42,43
 105 820 105 820 87 834 c 128,-1,44
 69 848 69 848 55 852.5 c 128,-1,45
 41 857 41 857 30.5 864.5 c 128,-1,46
 20 872 20 872 20 883 c 0,0,1
EndSplineSet
EndChar

StartChar: w
Encoding: 119 119 73
Width: 1454
GlyphClass: 2
Flags: W
LayerCount: 2
Fore
SplineSet
20 883 m 0,0,1
 20 910 20 910 72 914 c 1,2,-1
 342 914 l 1,3,-1
 371 918 l 1,4,5
 453 918 453 918 453 885 c 0,6,7
 453 877 453 877 445 871 c 128,-1,8
 437 865 437 865 428 862 c 128,-1,9
 419 859 419 859 411 850 c 128,-1,10
 403 841 403 841 403 827 c 2,11,-1
 578 164 l 2,12,13
 584 152 584 152 596 152 c 0,14,15
 611 152 611 152 614 164 c 2,16,-1
 692 504 l 1,17,-1
 616 799 l 1,18,19
 604 820 604 820 586.5 834 c 128,-1,20
 569 848 569 848 555 852.5 c 128,-1,21
 541 857 541 857 530.5 864.5 c 128,-1,22
 520 872 520 872 520 883 c 0,23,24
 520 911 520 911 571 914 c 2,25,-1
 842 914 l 1,26,-1
 870 918 l 1,27,28
 952 918 952 918 952 885 c 0,29,30
 952 877 952 877 944.5 871 c 128,-1,31
 937 865 937 865 927.5 862 c 128,-1,32
 918 859 918 859 910.5 850 c 128,-1,33
 903 841 903 841 903 827 c 2,34,-1
 1047 164 l 2,35,36
 1053 152 1053 152 1065 152 c 0,37,38
 1080 152 1080 152 1083 164 c 2,39,-1
 1253 817 l 1,40,-1
 1253 827 l 2,41,42
 1253 841 1253 841 1245.5 850 c 128,-1,43
 1238 859 1238 859 1228.5 862 c 128,-1,44
 1219 865 1219 865 1211.5 871 c 128,-1,45
 1204 877 1204 877 1204 885 c 0,46,47
 1204 918 1204 918 1286 918 c 1,48,-1
 1315 914 l 1,49,-1
 1391 914 l 2,50,51
 1454 914 1454 914 1454 883 c 0,52,53
 1454 872 1454 872 1442.5 864.5 c 128,-1,54
 1431 857 1431 857 1415.5 851.5 c 128,-1,55
 1400 846 1400 846 1381.5 829.5 c 128,-1,56
 1363 813 1363 813 1352 788 c 2,57,-1
 1139 43 l 2,58,59
 1131 21 1131 21 1112.5 7.5 c 128,-1,60
 1094 -6 1094 -6 1071 -6 c 2,61,-1
 881 -6 l 2,62,63
 859 -6 859 -6 839.5 7.5 c 128,-1,64
 820 21 820 21 813 41 c 2,65,-1
 739 324 l 1,66,-1
 672 43 l 2,67,68
 665 21 665 21 645 7.5 c 128,-1,69
 625 -6 625 -6 602 -6 c 2,70,-1
 414 -6 l 2,71,72
 391 -6 391 -6 372.5 7 c 128,-1,73
 354 20 354 20 346 41 c 2,74,-1
 117 799 l 1,75,76
 105 820 105 820 87 834 c 128,-1,77
 69 848 69 848 55 852.5 c 128,-1,78
 41 857 41 857 30.5 864.5 c 128,-1,79
 20 872 20 872 20 883 c 0,0,1
EndSplineSet
EndChar

StartChar: x
Encoding: 120 120 74
Width: 983
GlyphClass: 2
Flags: W
LayerCount: 2
Fore
SplineSet
20 881 m 2,0,-1
 20 887 l 2,1,2
 20 910 20 910 63 915 c 1,3,-1
 410 915 l 1,4,5
 482 911 482 911 489 885 c 1,6,-1
 489 881 l 2,7,8
 489 873 489 873 471 862.5 c 128,-1,9
 453 852 453 852 453 836 c 1,10,-1
 573 608 l 1,11,-1
 705 817 l 2,12,13
 711 829 711 829 711 840 c 0,14,15
 711 853 711 853 693.5 863 c 128,-1,16
 676 873 676 873 676 881 c 2,17,-1
 676 885 l 1,18,19
 686 918 686 918 768 918 c 1,20,-1
 797 915 l 1,21,-1
 870 915 l 2,22,23
 924 915 924 915 924 891 c 1,24,-1
 922 883 l 2,25,26
 918 870 918 870 897.5 862 c 128,-1,27
 877 854 877 854 845.5 837 c 128,-1,28
 814 820 814 820 791 788 c 2,29,-1
 627 522 l 1,30,-1
 872 111 l 2,31,32
 888 91 888 91 908 78 c 128,-1,33
 928 65 928 65 942 60 c 128,-1,34
 956 55 956 55 967 47.5 c 128,-1,35
 978 40 978 40 981 29 c 2,36,-1
 983 20 l 1,37,38
 983 0 983 0 944 -4 c 1,39,-1
 940 -4 l 1,40,-1
 942 -6 l 1,41,-1
 639 -6 l 2,42,43
 530 -6 530 -6 522 27 c 1,44,-1
 522 31 l 2,45,46
 522 39 522 39 540.5 49 c 128,-1,47
 559 59 559 59 559 74 c 2,48,-1
 557 84 l 1,49,-1
 416 330 l 1,50,-1
 248 74 l 1,51,52
 248 60 248 60 265.5 50 c 128,-1,53
 283 40 283 40 283 31 c 2,54,-1
 283 27 l 1,55,56
 273 -4 273 -4 197 -4 c 1,57,-1
 197 -6 l 1,58,-1
 82 -6 l 1,59,-1
 84 -4 l 1,60,61
 35 1 35 1 35 23 c 1,62,-1
 37 31 l 2,63,64
 41 43 41 43 60 51 c 128,-1,65
 79 59 79 59 108 74 c 128,-1,66
 137 89 137 89 160 117 c 1,67,-1
 354 416 l 1,68,-1
 131 799 l 1,69,70
 110 825 110 825 83.5 839 c 128,-1,71
 57 853 57 853 40 860.5 c 128,-1,72
 23 868 23 868 20 881 c 2,0,-1
EndSplineSet
EndChar

StartChar: y
Encoding: 121 121 75
Width: 1230
GlyphClass: 2
Flags: W
LayerCount: 2
Fore
SplineSet
20 -481 m 0,0,1
 20 -428 20 -428 58.5 -391.5 c 128,-1,2
 97 -355 97 -355 152 -350 c 1,3,-1
 158 -350 l 2,4,5
 195 -350 195 -350 219.5 -381 c 128,-1,6
 244 -412 244 -412 244 -444 c 0,7,8
 244 -460 244 -460 238 -469 c 0,9,10
 213 -497 213 -497 213 -514 c 0,11,12
 213 -528 213 -528 231 -537 c 1,13,14
 277 -527 277 -527 335 -490.5 c 128,-1,15
 393 -454 393 -454 458 -392 c 128,-1,16
 523 -330 523 -330 582.5 -228.5 c 128,-1,17
 642 -127 642 -127 676 -6 c 1,18,-1
 346 725 l 1,19,-1
 305 799 l 2,20,21
 293 819 293 819 275 833 c 128,-1,22
 257 847 257 847 242.5 852 c 128,-1,23
 228 857 228 857 217.5 864.5 c 128,-1,24
 207 872 207 872 207 883 c 0,25,26
 207 910 207 910 258 915 c 1,27,-1
 561 915 l 1,28,-1
 596 918 l 1,29,30
 696 918 696 918 696 885 c 0,31,32
 696 877 696 877 688.5 871 c 128,-1,33
 681 865 681 865 671.5 862 c 128,-1,34
 662 859 662 859 654.5 850 c 128,-1,35
 647 841 647 841 647 827 c 2,36,-1
 672 725 l 1,37,38
 819 369 819 369 858 369 c 0,39,40
 863 369 863 369 866 375 c 0,41,42
 900 465 900 465 922.5 523 c 128,-1,43
 945 581 945 581 952 598.5 c 128,-1,44
 959 616 959 616 975.5 663 c 128,-1,45
 992 710 992 710 1028 817 c 1,46,-1
 1030 829 l 2,47,48
 1030 842 1030 842 1022.5 850.5 c 128,-1,49
 1015 859 1015 859 1005.5 862 c 128,-1,50
 996 865 996 865 988.5 871 c 128,-1,51
 981 877 981 877 981 885 c 0,52,53
 981 918 981 918 1063 918 c 1,54,-1
 1092 915 l 1,55,-1
 1167 915 l 2,56,57
 1231 915 1231 915 1231 883 c 0,58,59
 1231 872 1231 872 1219.5 864.5 c 128,-1,60
 1208 857 1208 857 1192.5 851.5 c 128,-1,61
 1177 846 1177 846 1158 829.5 c 128,-1,62
 1139 813 1139 813 1128 788 c 2,63,-1
 1104 727 l 1,64,65
 1041 555 1041 555 990 423.5 c 128,-1,66
 939 292 939 292 882 158.5 c 128,-1,67
 825 25 825 25 774.5 -74 c 128,-1,68
 724 -173 724 -173 667 -265 c 128,-1,69
 610 -357 610 -357 554.5 -420 c 128,-1,70
 499 -483 499 -483 437 -529.5 c 128,-1,71
 375 -576 375 -576 309 -600 c 1,72,73
 261 -623 261 -623 201 -623 c 0,74,75
 138 -623 138 -623 88 -596 c 128,-1,76
 38 -569 38 -569 25 -514 c 0,77,78
 20 -489 20 -489 20 -481 c 0,0,1
EndSplineSet
EndChar

StartChar: z
Encoding: 122 122 76
Width: 913
GlyphClass: 2
Flags: W
LayerCount: 2
Fore
SplineSet
20 45 m 0,0,1
 20 89 20 89 59 152 c 2,2,-1
 467 788 l 2,3,4
 471 794 471 794 471 805 c 0,5,6
 471 817 471 817 462.5 826.5 c 128,-1,7
 454 836 454 836 442 836 c 2,8,-1
 256 838 l 1,9,-1
 256 836 l 1,10,11
 232 836 232 836 208 826 c 128,-1,12
 184 816 184 816 165.5 801 c 128,-1,13
 147 786 147 786 134 772 c 128,-1,14
 121 758 121 758 110 744 c 2,15,-1
 100 731 l 2,16,17
 83 711 83 711 66 711 c 128,-1,18
 49 711 49 711 49 725 c 2,19,-1
 49 729 l 2,20,21
 52 737 52 737 56.5 749.5 c 128,-1,22
 61 762 61 762 75.5 794 c 128,-1,23
 90 826 90 826 103.5 850.5 c 128,-1,24
 117 875 117 875 134 895 c 128,-1,25
 151 915 151 915 164 915 c 2,26,-1
 883 915 l 2,27,28
 895 915 895 915 904 906 c 128,-1,29
 913 897 913 897 913 885 c 0,30,31
 913 878 913 878 909 870 c 2,32,-1
 428 117 l 2,33,34
 424 111 424 111 424 100 c 128,-1,35
 424 89 424 89 432.5 80.5 c 128,-1,36
 441 72 441 72 453 72 c 2,37,-1
 709 74 l 2,38,39
 731 76 731 76 753.5 86.5 c 128,-1,40
 776 97 776 97 793 112 c 128,-1,41
 810 127 810 127 822 140 c 128,-1,42
 834 153 834 153 844 166 c 2,43,-1
 854 178 l 2,44,45
 872 199 872 199 889 199 c 0,46,47
 903 199 903 199 903 184 c 2,48,-1
 903 180 l 1,49,50
 899 163 899 163 834 31 c 0,51,52
 812 -6 812 -6 768 -6 c 2,53,-1
 55 -6 l 2,54,55
 42 -6 42 -6 31 7 c 128,-1,56
 20 20 20 20 20 45 c 0,0,1
EndSplineSet
EndChar

StartChar: braceleft
Encoding: 123 123 77
Width: 380
GlyphClass: 2
Flags: W
LayerCount: 2
Fore
SplineSet
20 690 m 1,0,-1
 121 844 l 1,1,-1
 121 1298 l 2,2,3
 124 1583 124 1583 236 1583 c 0,4,5
 365 1583 365 1583 373 1579 c 0,6,7
 378 1574 378 1574 381 1534 c 0,8,9
 381 1494 381 1494 360 1460 c 1,10,11
 282 1397 282 1397 279 1272 c 2,12,-1
 276 1124 l 2,13,14
 267 771 267 771 213 692 c 1,15,16
 273 612 273 612 276 281 c 2,17,-1
 279 109 l 2,18,19
 282 -17 282 -17 360 -80 c 1,20,21
 381 -115 381 -115 381 -154 c 0,22,23
 378 -194 378 -194 373 -199 c 0,24,25
 365 -203 365 -203 236 -203 c 0,26,27
 124 -203 124 -203 121 82 c 2,28,-1
 121 596 l 1,29,-1
 20 690 l 1,0,-1
EndSplineSet
EndChar

StartChar: bar
Encoding: 124 124 78
Width: 112
GlyphClass: 2
Flags: W
LayerCount: 2
Fore
SplineSet
20 -422 m 1,0,-1
 20 1583 l 1,1,-1
 113 1583 l 1,2,-1
 113 -422 l 1,3,-1
 20 -422 l 1,0,-1
EndSplineSet
EndChar

StartChar: braceright
Encoding: 125 125 79
Width: 380
GlyphClass: 2
Flags: W
LayerCount: 2
Fore
SplineSet
20 -154 m 0,0,1
 20 -114 20 -114 41 -80 c 1,2,3
 120 -16 120 -16 123 109 c 2,4,-1
 125 281 l 2,5,6
 128 612 128 612 188 692 c 1,7,8
 134 771 134 771 125 1124 c 1,9,-1
 123 1272 l 2,10,11
 120 1396 120 1396 41 1460 c 1,12,13
 20 1494 20 1494 20 1534 c 0,14,15
 23 1575 23 1575 31 1579 c 0,16,17
 35 1583 35 1583 166 1583 c 0,18,19
 278 1583 278 1583 281 1298 c 2,20,-1
 281 844 l 1,21,-1
 381 690 l 1,22,-1
 281 596 l 1,23,-1
 281 82 l 2,24,25
 278 -203 278 -203 166 -203 c 0,26,27
 35 -203 35 -203 31 -199 c 0,28,29
 23 -195 23 -195 20 -154 c 0,0,1
EndSplineSet
EndChar

StartChar: asciitilde
Encoding: 126 126 80
Width: 782
GlyphClass: 2
Flags: W
LayerCount: 2
Fore
SplineSet
20 606 m 1,0,1
 20 687 20 687 84 742 c 128,-1,2
 148 797 148 797 242 797 c 128,-1,3
 336 797 336 797 428 737 c 0,4,5
 556 651 556 651 664 651 c 0,6,7
 729 651 729 651 782 684 c 1,8,-1
 782 680 l 2,9,10
 782 663 782 663 771 637.5 c 128,-1,11
 760 612 760 612 739 585 c 128,-1,12
 718 558 718 558 680.5 539 c 128,-1,13
 643 520 643 520 598 520 c 0,14,15
 522 520 522 520 426 578 c 0,16,17
 329 637 329 637 227 637 c 0,18,19
 172 637 172 637 121.5 620 c 128,-1,20
 71 603 71 603 48 586 c 2,21,-1
 25 569 l 1,22,-1
 20 606 l 1,0,1
EndSplineSet
EndChar
